<svg width="594" height="332" viewBox="0 0 594 332" fill="none" xmlns="http://www.w3.org/2000/svg">
<mask id="mask0_774_3049" style="mask-type:alpha" maskUnits="userSpaceOnUse" x="0" y="0" width="620" height="332">
<rect width="620" height="332" rx="14" fill="#27AAE1"/>
</mask>
<g mask="url(#mask0_774_3049)">
<g clip-path="url(#clip0_774_3049)">
<path fill-rule="evenodd" clip-rule="evenodd" d="M256.47 53.1176V29.6929H278.219V311.777C278.219 314.32 275.576 316.796 270.289 318.018C267.797 318.553 265.219 318.553 262.727 318.018C257.44 316.863 254.797 314.32 254.797 311.777V203.705L256.47 53.1176Z" fill="#27AAE1"/>
<path d="M267.346 36.3856C273.352 36.3856 278.22 33.3891 278.22 29.6928C278.22 25.9965 273.352 23 267.346 23C261.34 23 256.471 25.9965 256.471 29.6928C256.471 33.3891 261.34 36.3856 267.346 36.3856Z" fill="white"/>
<path fill-rule="evenodd" clip-rule="evenodd" d="M103.056 284.387L264.837 190.972V52.1973L103.056 145.612L137.688 194.988L103.056 284.387Z" fill="#E3FFFF"/>
<path d="M256.47 29.6929H254.797V53.1176H256.47V29.6929Z" fill="#081E7A"/>
<path d="M265.672 318.838C264.339 318.841 263.009 318.701 261.707 318.419C256.42 317.265 253.124 314.554 253.124 311.359V203.705H254.797V311.359C254.797 313.701 257.641 315.826 262.075 316.78C264.445 317.298 266.899 317.298 269.269 316.78C273.685 315.826 276.546 313.701 276.546 311.359V29.6929H278.219V311.359C278.219 314.554 274.873 317.265 269.62 318.419C268.323 318.701 266.999 318.841 265.672 318.838Z" fill="#081E7A"/>
<path d="M266.508 38.0587C263.66 38.1164 260.85 37.3993 258.377 35.9839C257.358 35.469 256.491 34.6961 255.863 33.7421C255.235 32.788 254.867 31.6862 254.797 30.546C254.867 29.4059 255.235 28.3041 255.863 27.35C256.491 26.396 257.358 25.6231 258.377 25.1082C260.872 23.7492 263.667 23.0371 266.508 23.0371C269.349 23.0371 272.144 23.7492 274.639 25.1082C275.659 25.6231 276.525 26.396 277.154 27.35C277.782 28.3041 278.149 29.4059 278.219 30.546C278.14 31.6901 277.761 32.7931 277.121 33.7446C276.481 34.6961 275.602 35.4625 274.572 35.9672C272.121 37.3767 269.335 38.0992 266.508 38.0587V38.0587ZM266.508 24.6731C263.965 24.6251 261.456 25.2669 259.247 26.5304C258.481 26.908 257.824 27.475 257.338 28.1777C256.852 28.8805 256.553 29.6956 256.47 30.546C256.553 31.3965 256.852 32.2116 257.338 32.9143C257.824 33.6171 258.481 34.1841 259.247 34.5617C261.473 35.7728 263.966 36.4073 266.5 36.4073C269.033 36.4073 271.527 35.7728 273.752 34.5617C274.522 34.1863 275.183 33.6202 275.672 32.9173C276.161 32.2145 276.462 31.3981 276.546 30.546C276.462 29.6939 276.161 28.8776 275.672 28.1748C275.183 27.4719 274.522 26.9058 273.752 26.5304C271.551 25.2652 269.047 24.6231 266.508 24.6731V24.6731Z" fill="#081E7A"/>
<path d="M103.925 285.223C103.789 285.224 103.654 285.192 103.533 285.129C103.413 285.066 103.309 284.974 103.231 284.862C103.154 284.75 103.105 284.62 103.089 284.485C103.073 284.35 103.09 284.212 103.139 284.085L137.62 195.105L103.206 146.08C103.139 145.987 103.093 145.88 103.07 145.768C103.047 145.656 103.047 145.54 103.072 145.427C103.094 145.312 103.142 145.202 103.211 145.107C103.281 145.011 103.37 144.932 103.474 144.875L265.254 51.4441C265.381 51.3707 265.525 51.332 265.672 51.332C265.819 51.332 265.963 51.3707 266.09 51.4441C266.217 51.5211 266.322 51.6291 266.395 51.7579C266.468 51.8867 266.507 52.0321 266.509 52.1803V155.182H264.836V53.636L105.096 145.879L139.209 194.502C139.29 194.615 139.341 194.746 139.358 194.883C139.376 195.02 139.359 195.16 139.309 195.289L105.598 282.479L264.919 190.453V170.241H266.592V190.972C266.591 191.118 266.552 191.261 266.479 191.387C266.406 191.514 266.3 191.618 266.174 191.691L104.394 285.106C104.254 285.193 104.09 285.234 103.925 285.223V285.223Z" fill="#081E7A"/>
<path d="M264.33 51.4973L102.533 144.884L103.369 146.333L265.167 52.9465L264.33 51.4973Z" fill="#081E7A"/>
<path d="M200.109 117.351L199.432 125.861C187.922 124.312 176.952 133.222 174.807 144.919C173.658 151.192 174.648 157.098 178.031 162.517C181.415 167.936 186.309 171.364 192.611 172.756C192.541 172.886 187.334 177.566 185.158 179.524L184.207 179.045C174.499 174.204 168.51 166.394 166.699 155.782C164.436 142.511 168.638 131.407 179.356 123.096C185.116 118.625 191.816 116.797 199.103 117.201C199.331 117.22 199.56 117.238 199.788 117.256C199.898 117.279 200.005 117.311 200.109 117.351V117.351Z" fill="#67DAFF"/>
<path d="M221.507 147.681L224.632 144.34C225.28 150.987 224.269 157.125 221.362 162.918C218.455 168.71 214.075 173.17 208.236 176.4L213.2 176.795C209.419 179.329 205.104 180.954 200.592 181.544C196.071 182.154 191.47 181.693 187.159 180.198C187.381 180.049 197.709 173.122 197.709 173.122L198.568 173.085C208.191 172.244 216.514 165.125 218.88 154.883C220.98 144.55 216.679 137.489 216.677 137.309C216.851 137.346 221.033 141.843 221.428 147.189C221.441 147.297 221.468 147.407 221.507 147.681Z" fill="#27AAE1"/>
<path d="M229.262 140.483C229.548 142.564 229.927 144.505 230.052 146.458C230.563 153.958 229.002 160.987 225.068 167.437C223.081 170.704 220.548 173.604 217.579 176.012C217.286 176.265 216.915 176.411 216.528 176.426C214.525 176.313 212.528 176.131 210.34 175.957C210.632 175.731 210.791 175.596 210.951 175.489C218.429 170.763 223.109 164.049 225.05 155.443C225.973 151.316 226.123 147.053 225.494 142.871L225.399 142.179C226.434 141.765 228.068 141.017 229.262 140.483Z" fill="#67DAFF"/>
<path d="M223.902 140.054C226.472 140.259 228.72 138.339 228.925 135.766C229.13 133.194 227.213 130.943 224.643 130.738C222.074 130.534 219.826 132.454 219.621 135.026C219.416 137.599 221.333 139.85 223.902 140.054Z" fill="#27AAE1"/>
<path d="M216.055 129.5C217.978 129.653 219.662 128.216 219.815 126.29C219.968 124.364 218.533 122.679 216.61 122.526C214.686 122.373 213.003 123.81 212.85 125.736C212.696 127.662 214.132 129.347 216.055 129.5Z" fill="#27AAE1"/>
<path d="M206.777 123.998C208.054 124.1 209.171 123.146 209.273 121.868C209.374 120.59 208.422 119.471 207.146 119.37C205.869 119.268 204.752 120.222 204.65 121.5C204.548 122.778 205.501 123.897 206.777 123.998Z" fill="#27AAE1"/>
<path d="M207.778 184.778C207.582 187.053 207.054 193.4 206.918 194.394C206.542 197.164 204.612 199.529 201.076 199.174C200.329 199.098 199.977 199.285 199.7 200.015C199.211 201.358 198.288 202.5 197.077 203.258C195.867 204.017 194.438 204.348 193.017 204.2C190.152 203.926 187.858 201.811 187.31 198.865C187.204 198.288 187.016 198.052 186.425 198.034C183.583 197.947 180.709 195.504 181.167 191.704L181.896 182.548L207.778 184.778ZM183.236 188.898L183.028 191.512C189.69 192.053 197.403 192.734 204.063 193.31L205.11 193.393L205.334 190.797L183.236 188.898ZM205.751 186.422L183.683 184.516L183.468 187.007L205.536 188.913L205.751 186.422ZM201.27 197.505C202.063 197.554 202.851 197.351 203.522 196.925C204.193 196.499 204.712 195.872 205.006 195.133C205.006 195.133 183.43 193.326 183.011 193.288C183.079 193.562 183.166 193.831 183.272 194.093C183.864 195.261 184.784 196.02 186.111 196.145C190.475 196.555 200.301 197.39 201.27 197.505V197.505Z" fill="#27AAE1"/>
<path d="M195.991 169.123C206.803 169.983 216.265 161.905 217.126 151.079C217.988 140.254 209.921 130.781 199.11 129.921C188.298 129.061 178.836 137.14 177.975 147.965C177.113 158.79 185.18 168.263 195.991 169.123Z" fill="#27AAE1"/>
<path d="M186.191 149.007L191.097 151.192L190.9 153.674L183.53 149.83L183.697 147.732L191.58 145.101L191.382 147.59L186.191 149.007Z" fill="white"/>
<path d="M195.45 156.376L193.545 156.224L199.409 142.578L201.314 142.729L195.45 156.376Z" fill="white"/>
<path d="M208.981 150.784L203.977 148.575L204.173 146.118L211.631 149.969L211.465 152.053L203.491 154.685L203.688 152.211L208.981 150.784Z" fill="white"/>
</g>
<path opacity="0.08" d="M375.376 430C428.926 430 472.337 406.597 472.337 377.729C472.337 348.86 428.926 325.457 375.376 325.457C321.826 325.457 278.415 348.86 278.415 377.729C278.415 406.597 321.826 430 375.376 430Z" fill="black"/>
<path d="M472.37 65.9397C472.319 65.4662 472.17 65.0067 471.929 64.5872C471.689 64.1677 471.362 63.7966 470.968 63.495C470.574 63.1934 470.12 62.9672 469.633 62.8294C469.145 62.6916 468.633 62.6448 468.126 62.6918C467.619 62.7387 467.127 62.8785 466.678 63.103C466.229 63.3276 465.831 63.6326 465.508 64.0006C465.185 64.3686 464.943 64.7924 464.795 65.2478C464.648 65.7032 464.598 66.1813 464.648 66.6547L470.236 120.25L471.506 128.906C469.441 125.567 466.468 122.796 462.889 120.874L427.457 101.69C427.758 99.6739 427.911 97.6407 427.913 95.6049C427.92 89.5822 426.658 83.617 424.199 78.0492C423.925 77.2684 423.57 76.5144 423.14 75.7977C419.124 67.9288 412.802 61.2833 404.909 56.6309C397.015 51.9785 387.871 49.5095 378.536 49.5098C358.988 49.5098 345.027 56.5686 336.312 71.7054C336.062 71.5214 335.773 71.3908 335.464 71.3229C335.155 71.2549 334.833 71.2513 334.522 71.3123C334.211 71.3732 333.919 71.4973 333.665 71.6756C333.411 71.854 333.202 72.0823 333.053 72.3444L330.268 77.4711C329.724 78.4484 329.453 79.5385 329.482 80.6398C329.51 81.741 329.837 82.8176 330.431 83.7693C331.851 85.9684 333.535 88.0099 335.448 89.8544C335.204 92.3341 334.976 95.757 334.976 97.7499C334.81 104.805 336.036 111.829 338.592 118.47L338.837 119.991C340.855 124.49 343.928 128.508 347.829 131.751L324.631 171.761C322.192 172.685 319.857 173.831 317.659 175.184L275.206 200.011L274.75 199.357C274.585 199.08 274.355 198.842 274.077 198.659C273.8 198.476 273.482 198.354 273.148 198.301C272.813 198.249 272.47 198.267 272.144 198.355C271.818 198.443 271.517 198.598 271.264 198.809C269.39 200.331 266.523 202.673 264.014 204.469C259.86 207.511 252.611 205.67 242.609 212.668C241.258 213.518 240.257 214.772 239.772 216.224C239.286 217.676 239.344 219.238 239.937 220.655C245.736 231.304 253.931 237.389 257.971 236.994C261.473 236.674 264.845 233.951 267.028 231.943C267.973 231.122 268.559 230.513 268.559 230.513L289.183 225.219C289.401 225.16 289.601 225.055 289.769 224.913C289.936 224.771 290.068 224.595 290.152 224.399C290.237 224.203 290.273 223.991 290.257 223.78C290.242 223.569 290.175 223.364 290.063 223.18L332.109 212.242C333.168 213.857 334.321 215.416 335.562 216.913C335.562 216.913 312.544 247.947 311.126 268.895C307.053 273.44 304.806 279.17 304.773 285.097C304.773 290.33 306.761 328.849 312.674 340.715C312.674 340.715 305.164 347.135 300.244 349.311C297.896 350.249 295.808 351.675 294.14 353.481C292.471 355.287 291.266 357.425 290.617 359.732C290.617 359.732 289.134 368.738 289.248 369.787C290.144 378.58 298.208 381.41 306.565 381.866C316.62 382.328 326.582 379.879 335.09 374.853C336.36 374.108 347.65 366.41 352.683 363.109C354.792 361.734 356.446 359.836 357.46 357.628C358.473 355.421 358.805 352.993 358.418 350.619L356.479 339.316C358.841 326.628 355.127 297.389 355.127 297.389C356.072 295.787 356.841 294.1 357.424 292.354C367.197 286.049 376.409 279.018 384.971 271.329C384.466 286.39 385.085 303.383 389.37 312.693C388.381 316.663 388.437 320.797 389.533 324.742C388.392 329.61 390.754 369.833 396.407 382.794C393.082 386.601 388.936 389.711 384.238 391.922C381.892 392.859 379.805 394.283 378.137 396.086C376.468 397.889 375.262 400.024 374.61 402.328C374.61 402.328 373.128 411.334 373.242 412.399C374.138 421.192 382.202 424.021 390.575 424.463C400.631 424.932 410.595 422.482 419.1 417.449C420.354 416.704 431.643 409.021 436.677 405.72C438.79 404.345 440.448 402.445 441.465 400.235C442.481 398.025 442.815 395.593 442.428 393.215L440.44 381.912C442.949 367.688 439.316 330.188 439.316 330.188C440.998 327.234 442.034 323.997 442.363 320.665C442.363 320.665 460.706 289.494 457.024 263.297C459.701 259.351 461.124 254.778 461.129 250.107C463.003 249.21 464.827 248.236 466.587 247.186C467.77 246.484 468.639 245.402 469.03 244.144C472.949 242.706 476.295 240.171 478.609 236.887C481.531 232.17 482.944 226.769 482.682 221.324C482.682 221.324 482.03 214.22 481.248 206.294L483.105 206.568C484.131 206.472 485.074 206 485.727 205.256C486.381 204.511 486.691 203.555 486.591 202.597L472.37 65.9397Z" fill="#E3FFFF"/>
<path d="M354.899 297.815L355.127 297.435L354.899 297.815Z" fill="#67DAFF"/>
<path d="M311.257 268.804C307.007 273.322 304.688 279.144 304.741 285.158C304.741 285.705 304.741 286.359 304.741 286.892C315.802 297.039 354.932 297.434 355.046 297.434C355.99 295.832 356.76 294.145 357.342 292.399C357.342 292.399 320.249 275.421 311.257 268.804Z" fill="#67DAFF"/>
<path d="M389.5 312.222C388.278 316.317 388.278 320.647 389.5 324.742C400.578 334.889 439.219 330.219 439.284 330.219C440.966 327.264 442.001 324.027 442.33 320.695C442.33 320.695 400.757 314.336 389.5 312.222Z" fill="#67DAFF"/>
<path d="M326.554 197.714L317.659 175.169C319.724 173.659 322.064 172.509 324.566 171.776L338.299 190.229L326.554 197.714Z" fill="#67DAFF"/>
<path d="M274.75 199.357L290.128 223.302C290.219 223.484 290.266 223.682 290.266 223.883C290.267 224.084 290.22 224.282 290.13 224.464C290.041 224.647 289.909 224.809 289.746 224.939C289.582 225.069 289.39 225.165 289.183 225.219L268.494 230.422C268.494 230.422 260.349 238.986 254.647 235.761C248.946 232.536 232.59 219.59 242.592 212.607C252.595 205.624 259.844 207.374 263.998 204.407C266.507 202.612 269.374 200.3 271.247 198.748C271.505 198.537 271.811 198.382 272.142 198.297C272.472 198.212 272.82 198.198 273.157 198.257C273.494 198.316 273.813 198.445 274.089 198.636C274.365 198.826 274.591 199.073 274.75 199.357V199.357Z" fill="#27AAE1"/>
<path d="M239.937 220.655C239.937 220.655 251.177 211.436 257.27 214.737C263.363 218.039 270.384 228.824 268.559 230.498C266.735 232.171 262.467 236.583 257.971 236.979C253.474 237.374 243.195 229.22 239.937 220.655Z" fill="#67DAFF"/>
<path d="M338.788 119.976C342.037 127.529 348.34 133.585 356.333 136.832C363.11 139.957 370.571 141.571 378.129 141.548C384.624 141.641 391.07 140.497 397.075 138.186C397.075 138.186 399.844 133.866 399.844 124.16C399.896 119.22 399.099 114.305 397.482 109.601C397.482 109.601 376.126 114.165 356.903 109.951C336.996 105.569 335.318 99.3018 335.318 99.3018L338.788 119.976Z" fill="white"/>
<path d="M399.959 101.66C386.633 103.911 346.037 108.171 330.366 83.7388C329.771 82.7871 329.445 81.7105 329.416 80.6093C329.388 79.508 329.658 78.418 330.203 77.4406L332.988 72.3139C333.162 71.9896 333.426 71.7148 333.752 71.5182C334.078 71.3217 334.455 71.2106 334.843 71.1966C335.231 71.1826 335.616 71.2662 335.957 71.4387C336.299 71.6111 336.584 71.8661 336.784 72.177C341.525 79.3423 361.057 95.4223 403.673 96.685L399.959 101.66Z" fill="#27AAE1"/>
<path d="M409.977 97.78C409.981 99.5453 409.437 101.274 408.411 102.756C407.384 104.239 405.92 105.411 404.194 106.132C400.708 107.486 397.678 105.949 397.368 102.709C397.357 100.938 397.906 99.204 398.947 97.7236C399.987 96.2432 401.473 95.0827 403.217 94.3876C406.638 93.0032 409.733 94.5397 409.977 97.78Z" fill="#27AAE1"/>
<path d="M416.852 256.953C400.561 255.356 383.244 249.849 366.188 240.523C323.947 217.46 326.032 195.873 326.407 193.485C326.514 192.778 326.769 192.097 327.158 191.482C327.546 190.867 328.061 190.329 328.672 189.9C329.283 189.47 329.979 189.157 330.719 188.979C331.46 188.801 332.231 188.76 332.988 188.86C333.746 188.96 334.474 189.198 335.133 189.561C335.792 189.924 336.368 190.405 336.827 190.975C337.287 191.546 337.622 192.196 337.813 192.887C338.004 193.579 338.048 194.299 337.941 195.006C337.941 195.569 337.11 212.121 372.069 231.198C390.298 241.162 406.149 245.315 419.312 246.411L416.852 256.953Z" fill="#27AAE1"/>
<path d="M464.795 237.389C465.92 237.62 466.946 238.157 467.744 238.933C468.542 239.709 469.075 240.689 469.275 241.748C469.476 242.807 469.335 243.898 468.871 244.883C468.407 245.867 467.64 246.701 466.668 247.278C463.304 249.265 459.761 250.976 456.079 252.389L464.795 237.389Z" fill="#27AAE1"/>
<path d="M364.119 200.726L348.904 192.298C347.887 191.819 347.061 191.047 346.548 190.097C346.035 189.147 345.861 188.068 346.053 187.019L350.663 162.268C350.745 161.838 350.934 161.433 351.213 161.083C351.493 160.734 351.856 160.45 352.274 160.255C352.692 160.06 353.152 159.959 353.62 159.96C354.087 159.96 354.547 160.063 354.964 160.26L370.179 168.688C371.197 169.166 372.023 169.937 372.533 170.888C373.044 171.839 373.213 172.919 373.014 173.966L368.436 198.718C368.355 199.149 368.167 199.557 367.886 199.908C367.605 200.259 367.24 200.544 366.821 200.739C366.401 200.935 365.937 201.035 365.468 201.033C364.999 201.031 364.537 200.925 364.119 200.726Z" fill="#27AAE1"/>
<path d="M364.119 180.326L355.192 175.473C354.604 175.199 354.127 174.754 353.833 174.205C353.54 173.657 353.445 173.034 353.563 172.43L354.345 167.714C354.393 167.469 354.502 167.238 354.662 167.038C354.822 166.839 355.029 166.677 355.267 166.565C355.506 166.453 355.768 166.394 356.035 166.393C356.302 166.391 356.566 166.448 356.805 166.558L365.748 171.441C366.337 171.715 366.813 172.16 367.107 172.708C367.401 173.257 367.496 173.88 367.378 174.484L366.596 179.185C366.546 179.43 366.436 179.662 366.274 179.861C366.112 180.061 365.903 180.222 365.663 180.333C365.422 180.443 365.158 180.5 364.89 180.499C364.622 180.498 364.358 180.438 364.119 180.326V180.326Z" fill="#67DAFF"/>
<path d="M426.968 216.669C421.299 216.441 416.282 214.418 410.238 210.31C395.984 200.574 391.243 179.58 399.242 161.325C406.654 144.469 422.619 136.041 441.972 138.733C443.123 139.031 444.118 139.712 444.768 140.648C445.419 141.584 445.679 142.711 445.501 143.814C445.322 144.917 444.717 145.921 443.8 146.636C442.882 147.351 441.716 147.727 440.522 147.694C419.344 144.742 410.906 158.647 408.201 164.763C401.962 178.956 405.367 195.721 415.972 202.947C418.18 204.505 420.637 205.727 423.254 206.568L426.968 216.669Z" fill="#27AAE1"/>
<path d="M468.379 222.374L426.952 216.669C425.728 218.965 425.024 221.471 424.883 224.032L463.263 238.652C465.285 236.422 466.785 233.822 467.666 231.019C468.547 228.215 468.79 225.27 468.379 222.374Z" fill="#67DAFF"/>
<path d="M414.718 269.565L444.041 275.285C444.264 275.329 444.474 275.42 444.654 275.553C444.833 275.685 444.977 275.854 445.075 276.047C445.173 276.24 445.221 276.452 445.217 276.665C445.213 276.878 445.156 277.088 445.051 277.278L435.081 294.985C435.081 294.985 436.237 306.426 429.884 308.099C423.531 309.772 402.19 312.222 403.494 300.629C404.797 289.037 411.101 285.249 411.639 280.381C411.932 277.445 412.062 273.916 412.111 271.573C412.121 271.274 412.199 270.981 412.34 270.713C412.48 270.445 412.681 270.208 412.928 270.018C413.174 269.828 413.462 269.689 413.77 269.611C414.079 269.533 414.402 269.517 414.718 269.565Z" fill="#27AAE1"/>
<path d="M457.773 163.804C459.191 167.803 459.308 172.105 458.107 176.166C456.907 180.226 454.445 183.863 451.031 186.617C447.617 189.37 443.406 191.117 438.93 191.635C434.453 192.154 429.912 191.421 425.882 189.529C421.851 187.638 418.512 184.673 416.286 181.009C414.06 177.345 413.048 173.147 413.377 168.946C413.706 164.744 415.362 160.729 418.135 157.406C420.908 154.084 424.673 151.604 428.956 150.28C434.698 148.505 440.959 148.933 446.364 151.469C451.768 154.005 455.872 158.442 457.773 163.804Z" fill="#67DAFF"/>
<path d="M443.063 168.398C443.296 170.295 442.831 172.21 441.744 173.827C440.658 175.444 439.014 176.668 437.084 177.298C436.237 177.624 435.321 177.765 434.406 177.71C433.491 177.656 432.602 177.407 431.805 176.983C431.009 176.559 430.327 175.971 429.81 175.264C429.294 174.557 428.957 173.749 428.825 172.901C428.588 171.006 429.05 169.092 430.134 167.474C431.217 165.857 432.859 164.632 434.787 164.002C435.636 163.673 436.554 163.53 437.471 163.583C438.387 163.636 439.279 163.884 440.078 164.309C440.876 164.733 441.56 165.322 442.078 166.031C442.595 166.739 442.932 167.549 443.063 168.398V168.398Z" fill="#27AAE1"/>
<path d="M472.37 65.9395C472.319 65.466 472.17 65.0064 471.929 64.5869C471.689 64.1675 471.362 63.7963 470.968 63.4947C470.574 63.1931 470.12 62.967 469.633 62.8291C469.145 62.6913 468.633 62.6446 468.126 62.6915C467.619 62.7385 467.127 62.8782 466.678 63.1028C466.228 63.3273 465.831 63.6323 465.508 64.0003C465.185 64.3683 464.943 64.7921 464.795 65.2475C464.648 65.7029 464.598 66.181 464.648 66.6545L470.252 120.25L471.555 129.377L473.999 134.778L482.796 206.75H483.187C483.694 206.703 484.186 206.562 484.635 206.337C485.084 206.112 485.481 205.806 485.803 205.437C486.125 205.068 486.367 204.644 486.513 204.188C486.66 203.732 486.708 203.253 486.656 202.78L472.37 65.9395Z" fill="#27AAE1"/>
<path d="M469.454 244.905L468.77 243.52C472.523 242.115 475.732 239.68 477.974 236.537C480.826 231.925 482.2 226.645 481.932 221.325C481.923 221.254 481.923 221.182 481.932 221.112C481.932 220.929 481.932 220.61 481.932 220.61L473.901 139.22C473.79 135.584 472.684 132.035 470.688 128.911C468.692 125.787 465.872 123.193 462.498 121.376L426.365 101.994L427.18 100.671L463.296 120.143C466.908 122.082 469.927 124.854 472.063 128.194C474.2 131.535 475.382 135.331 475.497 139.22L483.529 220.457C483.575 220.791 483.575 221.128 483.529 221.461C483.776 227.008 482.33 232.506 479.358 237.313C476.964 240.729 473.508 243.378 469.454 244.905V244.905Z" fill="#081E7A"/>
<path d="M355.616 298.241L354.198 297.48C355.199 295.889 355.997 294.194 356.577 292.429L358.206 292.886C357.563 294.757 356.694 296.553 355.616 298.241V298.241Z" fill="#081E7A"/>
<path d="M304.008 286.816C304.008 286.268 304.008 285.721 304.008 285.158C304.006 278.904 306.431 272.862 310.833 268.15L312.071 269.154C307.925 273.587 305.639 279.272 305.637 285.158C305.637 285.675 305.637 286.208 305.637 286.679L304.008 286.816Z" fill="#081E7A"/>
<path d="M357.489 292.962C357.366 292.958 357.244 292.933 357.131 292.886C355.599 292.201 319.565 276.152 310.605 269.549C310.5 269.472 310.417 269.372 310.363 269.258C310.309 269.144 310.286 269.02 310.296 268.895C311.794 247.993 333.982 217.795 334.927 216.517L336.279 217.384C336.051 217.688 313.684 248.114 311.957 268.606C320.803 274.904 353.368 289.509 357.424 291.334C365.64 286.099 373.222 280.044 380.035 273.276L381.224 274.311C374.228 281.283 366.413 287.499 357.929 292.84C357.797 292.917 357.645 292.959 357.489 292.962V292.962Z" fill="#081E7A"/>
<path d="M335.758 350.436C326.733 350.436 316.502 348.17 312.951 342.83C306.435 333.2 302.753 292.627 304.105 286.877C304.141 286.745 304.212 286.624 304.311 286.526C304.411 286.427 304.537 286.354 304.675 286.314C304.814 286.277 304.96 286.275 305.1 286.307C305.24 286.339 305.369 286.404 305.474 286.497C316.193 296.339 354.818 296.704 355.209 296.704C355.406 296.707 355.595 296.776 355.742 296.899C355.889 297.022 355.983 297.191 356.007 297.374C356.202 298.895 360.796 335.619 355.909 343.941C354.398 346.108 352.112 347.704 349.458 348.444L348.888 347.029C351.145 346.397 353.101 345.06 354.427 343.241C358.727 335.923 355.029 303.322 354.427 298.256C349.034 298.165 317.154 297.298 305.555 288.611C305.083 297.1 308.308 333.094 314.352 342.039C318.017 347.5 329.567 349.417 338.788 348.9L338.885 350.421C337.778 350.406 336.784 350.436 335.758 350.436Z" fill="#081E7A"/>
<path d="M440.033 330.568L438.6 329.853C440.241 326.993 441.245 323.852 441.548 320.619L443.177 320.756C442.84 324.19 441.771 327.526 440.033 330.568V330.568Z" fill="#081E7A"/>
<path d="M388.751 324.939C387.512 320.543 387.546 315.918 388.848 311.537L390.477 311.948C389.273 316.072 389.239 320.419 390.38 324.559L388.751 324.939Z" fill="#081E7A"/>
<path d="M442.314 321.456C441.89 321.456 400.447 315.553 389.304 313.454C389.173 313.432 389.049 313.38 388.944 313.303C388.839 313.227 388.756 313.127 388.702 313.013C384.939 304.813 383.456 290.011 384.32 269.017H385.949C385.118 289.174 386.535 304.007 390.038 311.978C400.968 314.001 437.003 319.113 441.988 319.813C444.22 315.842 459.679 287.303 456.372 263.373L458.001 263.175C461.618 289.326 443.34 320.695 443.161 320.984C443.097 321.14 442.978 321.271 442.825 321.357C442.671 321.442 442.491 321.477 442.314 321.456V321.456Z" fill="#081E7A"/>
<path d="M419.686 393.048C410.612 393.048 400.529 390.796 396.88 385.441C390.135 375.431 387.464 329.975 388.734 324.59C388.762 324.454 388.83 324.329 388.93 324.228C389.029 324.126 389.157 324.053 389.299 324.015C389.44 323.977 389.59 323.977 389.732 324.014C389.874 324.051 390.002 324.124 390.103 324.224C400.757 334.006 438.811 329.519 439.186 329.473C439.296 329.457 439.408 329.464 439.515 329.493C439.622 329.522 439.721 329.572 439.805 329.64C439.893 329.701 439.966 329.778 440.02 329.867C440.073 329.957 440.106 330.056 440.115 330.157C440.294 332.12 444.708 378.215 439.838 386.537C438.939 387.942 437.642 389.09 436.091 389.853L435.276 388.529C436.571 387.907 437.658 386.965 438.42 385.806C442.721 378.443 439.137 337.292 438.567 331.04C432.882 331.664 401.702 334.63 390.135 326.248C389.451 335.375 392.286 375.705 398.281 384.574C401.897 389.959 413.626 392.074 423.335 391.374L423.449 392.896C422.233 392.997 420.979 393.048 419.686 393.048Z" fill="#081E7A"/>
<path d="M318.131 175.792L317.121 174.605C319.271 173.022 321.711 171.816 324.322 171.046L324.81 172.567C322.396 173.261 320.134 174.354 318.131 175.792V175.792Z" fill="#081E7A"/>
<path d="M333.347 184.859L323.963 172.202C323.884 172.08 323.842 171.941 323.842 171.799C323.842 171.656 323.884 171.517 323.963 171.395L345.288 134.413L346.721 135.143L325.544 171.654L334.65 183.931L333.347 184.859Z" fill="#081E7A"/>
<path d="M279.23 198.566L278.366 197.273L317.219 174.529C317.322 174.469 317.439 174.43 317.56 174.417C317.681 174.404 317.804 174.416 317.92 174.453C318.034 174.49 318.139 174.55 318.226 174.629C318.314 174.708 318.381 174.804 318.425 174.91L323.817 188.601L322.285 189.134L317.235 176.34L279.23 198.566Z" fill="#081E7A"/>
<path d="M326.032 212.547L289.879 222.515L290.34 223.974L326.494 214.006L326.032 212.547Z" fill="#081E7A"/>
<path d="M257.531 237.389C256.382 237.404 255.252 237.114 254.273 236.552C249.548 233.768 239.041 225.477 238.683 218.48C238.62 217.221 238.907 215.969 239.515 214.844C240.123 213.719 241.031 212.76 242.153 212.06C246.668 208.886 251.929 206.763 257.498 205.868C259.65 205.634 261.722 204.97 263.574 203.921C266.051 202.141 268.853 199.889 270.775 198.292C271.114 198.014 271.515 197.808 271.948 197.691C272.382 197.573 272.838 197.546 273.284 197.611C273.731 197.676 274.156 197.833 274.53 198.069C274.904 198.305 275.219 198.615 275.45 198.977L290.812 222.846C290.992 223.131 291.099 223.451 291.124 223.78C291.15 224.11 291.093 224.441 290.959 224.747C290.83 225.054 290.626 225.328 290.363 225.547C290.099 225.767 289.785 225.925 289.444 226.01L268.999 231.152C268.006 232.202 262.597 237.389 257.531 237.389ZM272.893 199.037C272.54 199.04 272.2 199.158 271.932 199.372C269.993 200.985 267.158 203.267 264.65 205.062C262.626 206.275 260.339 207.054 257.954 207.344C252.634 208.213 247.61 210.246 243.293 213.277C242.356 213.81 241.587 214.565 241.063 215.465C240.54 216.366 240.281 217.379 240.312 218.403C240.621 224.489 250.086 232.308 255.136 235.138C260.186 237.967 267.875 230.011 267.957 229.92C268.06 229.812 268.196 229.737 268.348 229.707L289.037 224.489C289.133 224.465 289.223 224.421 289.299 224.36C289.375 224.3 289.436 224.224 289.476 224.139C289.517 224.052 289.538 223.959 289.538 223.865C289.538 223.771 289.517 223.677 289.476 223.591L274.049 199.692C273.943 199.521 273.798 199.375 273.623 199.264C273.448 199.153 273.248 199.081 273.039 199.053L272.893 199.037Z" fill="#081E7A"/>
<path d="M267.175 226.923C265.269 223.013 260.773 217.491 256.863 215.376C252.285 212.897 243.472 218.738 240.475 221.203L239.399 220.062C239.872 219.666 251.145 210.523 257.677 213.977C261.929 216.274 266.588 222.009 268.657 226.147L267.175 226.923Z" fill="#081E7A"/>
<path d="M446.403 272.014L445.751 270.614C450.638 268.606 454.662 265.746 456.389 263.008C458.976 259.17 460.364 254.734 460.396 250.198H462.025C462.005 255.006 460.543 259.712 457.806 263.784C455.9 266.781 451.632 269.884 446.403 272.014Z" fill="#081E7A"/>
<path d="M411.199 275.634C397.173 274.454 383.572 270.519 371.287 264.088C348.22 251.796 340.971 235.062 338.706 226.177L340.335 225.827C342.535 234.468 349.605 250.761 372.151 262.764C384.222 269.08 397.582 272.952 411.362 274.128L411.199 275.634Z" fill="#081E7A"/>
<path d="M345.46 133.994L340.16 188.989L341.789 189.125L347.089 134.131L345.46 133.994Z" fill="#081E7A"/>
<path d="M411.053 130.006L410.238 131.324L423.472 138.459L424.286 137.141L411.053 130.006Z" fill="#081E7A"/>
<path d="M397.776 138.612L396.375 137.836C396.375 137.836 399.03 133.515 399.03 124.144C399.055 119.509 398.347 114.895 396.928 110.453C393.019 111.198 373.91 114.438 356.724 110.65C336.556 106.223 334.601 99.7578 334.52 99.484L336.149 99.1189C336.149 99.1189 338.136 105.037 357.098 109.251C376.06 113.465 397.075 108.946 397.303 108.901C397.497 108.86 397.7 108.887 397.874 108.977C398.048 109.067 398.181 109.213 398.248 109.388C399.904 114.167 400.719 119.166 400.659 124.19C400.659 133.941 397.89 138.505 397.776 138.612Z" fill="#081E7A"/>
<path d="M382.577 153.718C378.625 153.712 374.696 153.169 370.913 152.106C361.546 149.459 356.561 144.499 356.088 137.304L357.717 137.212C358.141 143.693 362.735 148.211 371.385 150.645C377.967 152.572 384.99 152.765 391.682 151.203C398.373 149.641 404.473 146.384 409.309 141.791C411.557 139.449 412.665 137.227 412.111 135.995L413.61 135.387C414.441 137.197 413.317 139.951 410.531 142.811C404.846 148.652 394.517 153.718 382.577 153.718Z" fill="#081E7A"/>
<path d="M378.536 142.339C370.85 142.365 363.263 140.713 356.381 137.516L355.844 137.273C341.41 130.808 334.112 117.496 334.112 97.7194C334.111 95.2796 334.258 92.8416 334.552 90.4172L336.181 90.5998C335.887 92.9631 335.74 95.3403 335.741 97.7194C335.741 116.873 342.73 129.667 356.544 135.904L357.098 136.162C363.762 139.244 371.101 140.837 378.536 140.818C384.919 140.912 391.255 139.789 397.157 137.516L397.792 138.916C391.692 141.275 385.138 142.44 378.536 142.339Z" fill="#081E7A"/>
<path d="M397.482 138.977C397.316 138.984 397.15 138.943 397.01 138.859C396.87 138.774 396.761 138.65 396.7 138.505C396.618 138.319 396.616 138.111 396.695 137.923C396.774 137.736 396.928 137.585 397.124 137.501C404.145 134.687 408.087 127.993 408.527 118.15C408.639 114.713 408.211 111.279 407.257 107.958L408.886 107.577C409.889 111.046 410.334 114.635 410.205 118.226C409.896 124.661 408.153 129.849 405.074 133.607C414.536 127.824 421.546 119.142 424.896 109.056C428.247 98.9689 427.73 88.1072 423.433 78.3382C423.165 77.5844 422.822 76.856 422.407 76.1627C418.436 68.4353 412.215 61.9083 404.456 57.3292C396.697 52.75 387.715 50.3037 378.536 50.2703C358.988 50.2703 345.483 57.4052 337.028 72.0704L335.595 71.3402C344.359 56.1425 358.401 48.749 378.536 48.749C388.02 48.7818 397.302 51.3077 405.32 56.0375C413.338 60.7673 419.767 67.5099 423.873 75.4933C424.318 76.2411 424.689 77.0253 424.981 77.8361C430.011 89.3082 429.976 102.173 424.881 113.621C419.787 125.069 410.048 134.168 397.792 138.931C397.692 138.961 397.587 138.977 397.482 138.977V138.977Z" fill="#081E7A"/>
<path d="M378.357 104.246C361.203 104.246 340.156 100.488 329.665 84.1494C329.005 83.087 328.641 81.8866 328.606 80.6585C328.572 79.4305 328.869 78.2141 329.47 77.121L332.255 71.9943C332.494 71.5514 332.856 71.1766 333.303 70.909C333.75 70.6414 334.266 70.4908 334.797 70.473C335.331 70.4459 335.862 70.5565 336.333 70.7926C336.805 71.0287 337.197 71.3813 337.468 71.8117C342.355 79.2813 360.275 92.6991 395.43 95.5135L395.299 97.0348C359.46 94.1747 341.199 80.3005 336.084 72.6941C335.958 72.4992 335.777 72.3398 335.562 72.2327C335.347 72.1256 335.105 72.0747 334.862 72.0856C334.623 72.091 334.39 72.1578 334.189 72.2785C333.988 72.3992 333.826 72.5693 333.721 72.7701L330.919 77.8056C330.444 78.6714 330.209 79.6344 330.234 80.607C330.26 81.5796 330.546 82.5307 331.066 83.3736C346.2 106.984 385.949 103.013 397.776 101.234L398.02 102.755C391.518 103.733 384.943 104.232 378.357 104.246V104.246Z" fill="#081E7A"/>
<path d="M401.718 107.38C400.387 107.408 399.097 106.945 398.13 106.09C397.163 105.235 396.596 104.059 396.554 102.816C396.528 100.886 397.111 98.9922 398.229 97.3693C399.347 95.7464 400.951 94.4662 402.842 93.688C403.708 93.3004 404.661 93.1108 405.621 93.1346C406.581 93.1584 407.521 93.395 408.364 93.8249C409.077 94.2491 409.669 94.8272 410.092 95.5104C410.514 96.1935 410.754 96.9617 410.792 97.7498C410.817 99.6794 410.235 101.573 409.117 103.196C407.999 104.819 406.394 106.099 404.504 106.878C403.619 107.213 402.673 107.384 401.718 107.38V107.38ZM405.611 94.6312C404.872 94.6408 404.141 94.7855 403.461 95.0571C401.879 95.7017 400.535 96.7665 399.597 98.1191C398.658 99.4716 398.167 101.052 398.183 102.664C398.196 103.213 398.351 103.752 398.635 104.234C398.918 104.716 399.322 105.127 399.812 105.432C400.438 105.728 401.13 105.882 401.832 105.882C402.534 105.882 403.226 105.728 403.852 105.432C405.435 104.788 406.781 103.724 407.723 102.372C408.664 101.02 409.159 99.4387 409.146 97.8259C409.129 97.2769 408.972 96.7396 408.689 96.2582C408.406 95.7769 408.004 95.3652 407.517 95.0571C406.935 94.7555 406.276 94.6082 405.611 94.6312V94.6312Z" fill="#081E7A"/>
<path d="M416.77 257.714C400.219 256.086 382.56 250.366 365.781 241.192C323.084 217.871 325.218 195.812 325.592 193.378C325.72 192.569 326.017 191.792 326.467 191.09C326.917 190.389 327.511 189.778 328.215 189.291C328.919 188.805 329.719 188.454 330.569 188.257C331.419 188.06 332.302 188.022 333.167 188.145C334.877 188.39 336.417 189.246 337.462 190.532C338.508 191.818 338.977 193.433 338.771 195.036C338.771 195.66 337.973 211.634 372.509 230.483C388.62 239.291 404.39 244.342 419.36 245.528L419.23 247.049C404.015 245.863 388.018 240.736 371.678 231.837C336.263 212.47 337.077 195.599 337.126 194.9C337.29 193.682 336.939 192.453 336.149 191.473C335.358 190.493 334.189 189.839 332.891 189.651C332.24 189.561 331.577 189.591 330.939 189.74C330.301 189.889 329.701 190.154 329.173 190.52C328.645 190.886 328.199 191.346 327.861 191.873C327.524 192.4 327.301 192.984 327.205 193.591C326.83 195.934 324.827 217.065 366.596 239.869C383.212 248.997 400.626 254.595 416.933 256.208L416.77 257.714Z" fill="#081E7A"/>
<path d="M456.389 253.028L455.77 251.628C459.407 250.232 462.906 248.542 466.228 246.578C467.064 246.08 467.723 245.362 468.122 244.514C468.52 243.667 468.639 242.727 468.465 241.816C468.29 240.905 467.829 240.062 467.141 239.396C466.453 238.73 465.568 238.27 464.599 238.074L464.941 236.552C466.222 236.821 467.388 237.438 468.294 238.325C469.2 239.212 469.804 240.33 470.03 241.537C470.257 242.744 470.096 243.987 469.567 245.109C469.038 246.231 468.165 247.181 467.059 247.84C463.672 249.859 460.102 251.595 456.389 253.028Z" fill="#081E7A"/>
<path d="M365.472 201.791C364.905 201.778 364.349 201.648 363.842 201.41L348.578 192.952C347.402 192.405 346.448 191.515 345.861 190.418C345.273 189.32 345.083 188.074 345.32 186.867L349.93 162.116C350.029 161.568 350.265 161.049 350.619 160.602C350.973 160.156 351.435 159.793 351.967 159.545C352.496 159.29 353.082 159.157 353.677 159.157C354.272 159.157 354.859 159.29 355.388 159.545L370.636 168.033C371.81 168.583 372.762 169.472 373.35 170.569C373.937 171.666 374.128 172.912 373.894 174.119L369.235 198.84C369.084 199.668 368.623 200.42 367.934 200.961C367.244 201.501 366.372 201.795 365.472 201.791V201.791ZM364.527 200.057C364.832 200.2 365.17 200.273 365.512 200.27C365.854 200.267 366.19 200.188 366.493 200.039C366.796 199.89 367.056 199.676 367.252 199.415C367.449 199.153 367.575 198.852 367.622 198.535L372.265 173.829C372.436 172.941 372.293 172.024 371.858 171.217C371.424 170.411 370.72 169.758 369.854 169.357L354.589 160.914C354.294 160.775 353.967 160.702 353.636 160.702C353.305 160.702 352.979 160.775 352.684 160.914C352.375 161.063 352.109 161.279 351.908 161.544C351.707 161.808 351.576 162.114 351.527 162.435L346.884 187.186C346.712 188.073 346.852 188.989 347.283 189.795C347.715 190.602 348.415 191.256 349.279 191.659L364.527 200.057Z" fill="#081E7A"/>
<path d="M364.869 181.254C364.477 181.257 364.09 181.168 363.745 180.995L354.769 176.127C354.037 175.781 353.443 175.225 353.073 174.54C352.704 173.856 352.579 173.079 352.716 172.324L353.498 167.638C353.564 167.263 353.726 166.908 353.97 166.604C354.214 166.299 354.533 166.054 354.899 165.889C355.248 165.717 355.637 165.627 356.031 165.627C356.426 165.627 356.814 165.717 357.163 165.889L366.139 170.757C366.869 171.104 367.459 171.661 367.823 172.346C368.187 173.031 368.305 173.808 368.16 174.56L367.378 179.276C367.314 179.644 367.156 179.992 366.918 180.291C366.68 180.59 366.368 180.832 366.009 180.995C365.658 181.169 365.266 181.258 364.869 181.254V181.254ZM364.494 179.732C364.62 179.785 364.758 179.811 364.896 179.807C365.034 179.803 365.17 179.769 365.292 179.709C365.414 179.649 365.521 179.564 365.602 179.46C365.684 179.356 365.74 179.236 365.765 179.109L366.547 174.423C366.633 173.983 366.563 173.528 366.349 173.127C366.134 172.727 365.786 172.402 365.358 172.202L356.398 167.334C356.279 167.278 356.148 167.248 356.015 167.248C355.882 167.248 355.751 167.278 355.632 167.334C355.504 167.391 355.393 167.476 355.308 167.582C355.223 167.688 355.166 167.812 355.143 167.942L354.345 172.567C354.259 173.008 354.329 173.462 354.543 173.863C354.758 174.263 355.105 174.588 355.534 174.788L364.494 179.732Z" fill="#081E7A"/>
<path d="M426.936 217.43C421.266 217.202 416.135 215.254 409.765 210.919C395.202 200.985 390.347 179.58 398.476 161.081C406.035 143.891 422.342 135.219 442.086 138.034C442.849 138.103 443.589 138.317 444.262 138.661C444.934 139.005 445.525 139.474 445.998 140.038C446.471 140.601 446.816 141.249 447.013 141.941C447.211 142.633 447.256 143.355 447.145 144.064C447.035 144.773 446.772 145.453 446.372 146.064C445.972 146.675 445.443 147.204 444.818 147.619C444.192 148.034 443.483 148.326 442.734 148.477C441.984 148.628 441.21 148.636 440.457 148.5C419.947 145.625 411.622 159.149 409.016 165.097C402.907 178.972 406.198 195.356 416.493 202.369C418.628 203.885 421.01 205.071 423.547 205.883L423.042 207.328C420.345 206.461 417.811 205.204 415.532 203.601C404.65 196.193 401.131 179.017 407.501 164.519C410.222 158.282 418.986 143.967 440.685 146.994C441.221 147.094 441.774 147.091 442.309 146.985C442.845 146.88 443.352 146.674 443.799 146.38C444.247 146.086 444.626 145.71 444.913 145.275C445.2 144.84 445.39 144.355 445.47 143.85C445.551 143.344 445.521 142.829 445.382 142.335C445.243 141.841 444.998 141.378 444.661 140.975C444.325 140.572 443.905 140.237 443.425 139.99C442.946 139.743 442.418 139.59 441.874 139.54C422.928 136.893 407.273 145.168 400.024 161.659C392.139 179.58 396.7 200.163 410.727 209.686C416.803 213.84 421.674 215.696 427.017 215.908L426.936 217.43Z" fill="#081E7A"/>
<path d="M425.681 224.352L424.052 224.276C424.198 221.52 424.935 218.82 426.219 216.334L427.685 216.989C426.514 219.299 425.833 221.799 425.681 224.352V224.352Z" fill="#081E7A"/>
<path d="M463.899 239.139L462.661 238.15C464.604 236.039 466.045 233.567 466.887 230.897C467.73 228.227 467.955 225.421 467.548 222.663L469.177 222.45C469.614 225.422 469.37 228.447 468.46 231.325C467.55 234.202 465.995 236.865 463.899 239.139V239.139Z" fill="#081E7A"/>
<path d="M468.509 222.937H468.379L426.838 217.43C426.686 217.409 426.544 217.35 426.426 217.259C426.308 217.168 426.219 217.048 426.17 216.913L417.178 191.385L418.807 190.914L427.652 215.985L467.564 221.279L459.174 178.683L460.803 178.409L469.389 222.009C469.412 222.128 469.405 222.251 469.368 222.367C469.331 222.483 469.266 222.59 469.177 222.678C469.096 222.768 468.993 222.839 468.877 222.884C468.76 222.929 468.634 222.947 468.509 222.937V222.937Z" fill="#081E7A"/>
<path d="M444.708 275.619L443.242 274.95L462.172 239.047L425.502 224.808L415.467 266.111L413.838 265.777L424.085 223.591C424.113 223.484 424.165 223.384 424.239 223.297C424.312 223.211 424.403 223.14 424.508 223.089C424.616 223.044 424.732 223.02 424.85 223.02C424.968 223.02 425.085 223.044 425.192 223.089L463.557 237.983C463.661 238.019 463.755 238.076 463.834 238.15C463.912 238.223 463.973 238.311 464.013 238.409C464.057 238.505 464.079 238.608 464.079 238.713C464.079 238.817 464.057 238.921 464.013 239.017L444.708 275.619Z" fill="#081E7A"/>
<path d="M417.78 310.29C412.991 310.29 408.153 309.544 405.302 307.247C404.269 306.436 403.479 305.389 403.008 304.208C402.537 303.027 402.401 301.752 402.614 300.508C403.185 295.256 405.09 290.208 408.169 285.782C409.423 284.134 410.289 282.257 410.71 280.275C411.003 277.384 411.134 273.916 411.183 271.512C411.197 271.091 411.31 270.679 411.513 270.303C411.716 269.927 412.005 269.597 412.358 269.337C412.712 269.076 413.122 268.89 413.561 268.793C413.999 268.696 414.455 268.689 414.897 268.774L444.22 274.494C444.567 274.553 444.895 274.688 445.177 274.886C445.459 275.084 445.688 275.341 445.846 275.636C446.004 275.931 446.087 276.256 446.087 276.586C446.088 276.915 446.006 277.241 445.849 277.536L435.798 295.198C435.944 296.917 436.465 307.186 429.982 308.89C425.994 309.834 421.894 310.305 417.78 310.29ZM414.262 270.28C413.936 270.276 413.619 270.378 413.366 270.569C413.198 270.69 413.062 270.844 412.966 271.02C412.87 271.197 412.818 271.39 412.812 271.588C412.812 274.022 412.632 277.521 412.339 280.457C411.902 282.647 410.963 284.723 409.586 286.542C406.616 290.774 404.778 295.611 404.227 300.645C404.043 301.644 404.142 302.67 404.513 303.623C404.885 304.575 405.516 305.421 406.344 306.076C411.231 309.97 423.922 308.799 429.591 307.308C435.26 305.817 434.217 295.138 434.217 294.985C434.179 294.846 434.179 294.699 434.217 294.559L444.252 276.943C444.301 276.859 444.326 276.765 444.326 276.669C444.326 276.573 444.301 276.479 444.252 276.395C444.207 276.312 444.143 276.238 444.064 276.181C443.985 276.123 443.894 276.082 443.796 276.061L414.473 270.34C414.406 270.312 414.335 270.292 414.262 270.28V270.28Z" fill="#081E7A"/>
<path d="M435.293 193.272C429.356 193.269 423.638 191.179 419.277 187.417C414.916 183.656 412.232 178.499 411.758 172.972C411.284 167.446 413.057 161.956 416.722 157.595C420.387 153.233 425.676 150.321 431.536 149.437C437.397 148.552 443.399 149.761 448.348 152.823C453.298 155.884 456.831 160.574 458.245 165.958C459.659 171.343 458.851 177.027 455.98 181.879C453.109 186.732 448.387 190.397 442.754 192.146C440.348 192.895 437.828 193.275 435.293 193.272V193.272ZM435.293 150.675C432.934 150.677 430.591 151.032 428.353 151.725C423.138 153.349 418.769 156.747 416.115 161.243C413.462 165.739 412.717 171.003 414.031 175.988C415.344 180.973 418.619 185.313 423.204 188.146C427.788 190.978 433.347 192.095 438.773 191.274C444.2 190.454 449.097 187.755 452.489 183.716C455.882 179.677 457.522 174.593 457.084 169.476C456.645 164.359 454.159 159.583 450.122 156.1C446.084 152.616 440.79 150.679 435.293 150.675Z" fill="#081E7A"/>
<path d="M434.739 178.439C433.105 178.451 431.523 177.908 430.285 176.912C429.048 175.916 428.24 174.534 428.011 173.023C427.739 170.949 428.238 168.851 429.424 167.079C430.61 165.307 432.411 163.968 434.527 163.287L435.048 164.717C433.296 165.284 431.804 166.392 430.818 167.858C429.831 169.324 429.41 171.06 429.623 172.78C429.725 173.483 429.993 174.156 430.407 174.75C430.821 175.345 431.371 175.846 432.018 176.218C432.741 176.606 433.546 176.84 434.377 176.903C435.208 176.966 436.044 176.857 436.824 176.583C438.576 176.016 440.068 174.909 441.054 173.443C442.041 171.977 442.462 170.24 442.249 168.52L443.878 168.277C444.149 170.351 443.65 172.45 442.464 174.222C441.278 175.994 439.477 177.332 437.361 178.013C436.519 178.292 435.632 178.436 434.739 178.439V178.439Z" fill="#081E7A"/>
<path d="M482.796 207.374V205.853H483.04C483.852 205.78 484.6 205.409 485.119 204.821C485.638 204.233 485.887 203.477 485.809 202.719L471.637 66.0158C471.609 65.6337 471.499 65.2608 471.314 64.9192C471.129 64.5775 470.872 64.2741 470.559 64.0268C470.246 63.7795 469.883 63.5935 469.491 63.4797C469.1 63.3659 468.688 63.3267 468.28 63.3644C467.872 63.4021 467.476 63.516 467.116 63.6992C466.756 63.8824 466.439 64.1313 466.184 64.431C465.928 64.7308 465.74 65.0753 465.631 65.4443C465.521 65.8132 465.491 66.1989 465.544 66.5786L471.132 120.098L469.503 120.25L463.899 66.7156C463.778 65.559 464.153 64.4049 464.941 63.5056C465.533 62.8387 466.323 62.3499 467.211 62.1007C468.1 61.8514 469.047 61.8529 469.935 62.1048C470.823 62.3567 471.611 62.8478 472.2 63.5166C472.79 64.1853 473.155 65.0019 473.249 65.8636L487.536 202.552C487.599 203.126 487.54 203.705 487.361 204.258C487.183 204.81 486.889 205.324 486.496 205.769C486.104 206.215 485.621 206.583 485.075 206.854C484.53 207.124 483.932 207.291 483.317 207.344L482.796 207.374Z" fill="#081E7A"/>
</g>
<defs>
<clipPath id="clip0_774_3049">
<rect x="80.5036" y="23" width="272.815" height="337.466" rx="12.441" fill="white"/>
</clipPath>
</defs>
</svg>
