<svg xmlns="http://www.w3.org/2000/svg" xmlns:xlink="http://www.w3.org/1999/xlink" version="1.1" width="1000" height="1000" viewBox="0 0 1000 1000" xml:space="preserve">
<desc>Created with Fabric.js 3.5.0</desc>
<defs>
</defs>
<rect x="0" y="0" width="100%" height="100%" fill="#ffffff"/>
<g transform="matrix(1 0 0 1 500 500)" id="113788">
<path style="stroke: none; stroke-width: 1; stroke-dasharray: none; stroke-linecap: butt; stroke-dashoffset: 0; stroke-linejoin: miter; stroke-miterlimit: 4; is-custom-font: none; font-file-url: none; fill: rgb(39,170,225); fill-rule: nonzero; opacity: 1;" vector-effect="non-scaling-stroke" transform=" translate(-176, -55)" d="M 0 14 C 0 6.26801 6.26801 0 14 0 H 338 C 345.732 0 352 6.26801 352 14 V 110 H 0 V 14 Z" stroke-linecap="round"/>
</g>
<g transform="matrix(1 0 0 1 500 425.4973)" id="697244">
<g style="" vector-effect="non-scaling-stroke">
		<g transform="matrix(1 0 0 1 -5.1885 22.913)" clip-path="url(#CLIPPATH_2)">
<clipPath id="CLIPPATH_2">
	<rect transform="matrix(0.9966 0.083 -0.083 0.9966 5.189 -22.9132)" id="clip0_662_5745" x="-116" y="-95" rx="0" ry="0" width="232" height="190"/>
</clipPath>
<path style="stroke: none; stroke-width: 1; stroke-dasharray: none; stroke-linecap: butt; stroke-dashoffset: 0; stroke-linejoin: miter; stroke-miterlimit: 4; is-custom-font: none; font-file-url: none; fill: rgb(0,0,0); fill-rule: evenodd; opacity: 0.08;" transform=" translate(-118.8115, -127.913)" d="M 203.901 153.758 L 90.9427 75.1023 C 85.4361 71.2815 76.1221 70.5058 70.0215 73.3599 L 34.7134 89.9943 C 28.6609 92.8429 28.2108 98.2476 33.7079 102.068 L 146.676 180.724 C 152.182 184.545 161.496 185.32 167.597 182.466 L 202.905 165.832 C 208.964 163.012 209.417 157.579 203.901 153.758 Z" stroke-linecap="round"/>
</g>
		<g transform="matrix(1 0 0 1 -0.4713 -0.0394)" clip-path="url(#CLIPPATH_3)">
<clipPath id="CLIPPATH_3">
	<rect transform="matrix(0.9966 0.083 -0.083 0.9966 0.4718 0.0393)" id="clip0_662_5745" x="-116" y="-95" rx="0" ry="0" width="232" height="190"/>
</clipPath>
<path style="stroke: none; stroke-width: 1; stroke-dasharray: none; stroke-linecap: butt; stroke-dashoffset: 0; stroke-linejoin: miter; stroke-miterlimit: 4; is-custom-font: none; font-file-url: none; fill: rgb(251,251,255); fill-rule: nonzero; opacity: 1;" transform=" translate(-123.5287, -104.9606)" d="M 241.981 74.6312 L 246.502 20.3481 L 161.446 60.4208 L 144.935 83.8823 C 141.867 81.9267 137.792 81.4449 133.107 82.7073 C 124.017 72.0536 114.915 61.5414 113.611 60.6635 C 113.32 60.4633 113.018 60.2797 112.706 60.1133 C 112.706 60.1133 82.9868 39.4215 78.9784 36.6657 C 74.9699 33.9099 69.127 33.7843 62.3919 36.956 C 48.9303 43.3096 37.0157 60.4105 35.7863 75.1721 C 35.1925 82.3029 37.1959 87.5701 40.9503 90.4091 C 41.2625 90.6536 62.1802 104.99 62.1802 104.99 L 65.4029 106.911 L 5.07619 135.29 L 0.555367 189.573 L 85.6067 149.557 L 100.693 128.142 L 101.888 128.859 C 102.491 133.031 104.296 136.221 106.925 138.207 C 107.193 138.409 130.644 154.495 139.068 160.259 C 139.938 161.097 140.94 161.787 142.033 162.301 C 145.5 163.919 149.995 163.914 155.089 161.964 L 155.959 160.649 C 157.324 161.599 161.218 164.583 162.132 165.02 C 165.087 166.396 169.027 166.202 173.481 164.065 C 173.481 164.065 176.75 161.327 177.02 161.511 C 178.564 162.589 180.817 162.587 183.396 161.396 C 188.586 158.979 193.161 152.531 193.626 146.947 C 193.867 144.061 192.947 141.98 191.274 140.967 L 193.581 135.166 C 194.078 129.205 192.17 124.952 188.73 123.023 C 188.038 122.538 185.805 120.946 183.343 119.24 L 183.922 118.339 C 183.525 112.607 181.143 108.467 177.41 106.399 L 176.179 105.546 L 241.981 74.6312 Z" stroke-linecap="round"/>
</g>
		<g transform="matrix(1 0 0 1 -49.645 -34.2388)" clip-path="url(#CLIPPATH_4)">
<clipPath id="CLIPPATH_4">
	<rect transform="matrix(0.9966 0.083 -0.083 0.9966 49.6454 34.2387)" id="clip0_662_5745" x="-116" y="-95" rx="0" ry="0" width="232" height="190"/>
</clipPath>
<path style="stroke: none; stroke-width: 1; stroke-dasharray: none; stroke-linecap: butt; stroke-dashoffset: 0; stroke-linejoin: miter; stroke-miterlimit: 4; is-custom-font: none; font-file-url: none; fill: rgb(179,182,255); fill-rule: nonzero; opacity: 1;" transform=" translate(-74.3551, -70.7611)" d="M 97.2129 60.9695 C 103.453 58.0321 108.869 57.9228 112.876 60.1275 C 112.876 60.1275 83.1378 39.4342 79.1294 36.6784 C 75.1209 33.9226 69.278 33.7969 62.5429 36.9686 C 49.0813 43.3223 37.1667 60.4232 35.9373 75.1848 C 35.3434 82.3156 37.3468 87.5827 41.1013 90.4218 C 41.423 90.6671 65.535 106.922 65.535 106.922 L 70.5882 104.55 C 70.5882 104.55 70.5971 99.1943 70.858 97.4305 C 73.2904 80.6606 84.286 67.0637 97.2129 60.9695 Z" stroke-linecap="round"/>
</g>
		<g transform="matrix(1 0 0 1 -78.6585 37.4235)" clip-path="url(#CLIPPATH_5)">
<clipPath id="CLIPPATH_5">
	<rect transform="matrix(0.9966 0.083 -0.083 0.9966 78.6591 -37.4237)" id="clip0_662_5745" x="-116" y="-95" rx="0" ry="0" width="232" height="190"/>
</clipPath>
<path style="stroke: none; stroke-width: 1; stroke-dasharray: none; stroke-linecap: butt; stroke-dashoffset: 0; stroke-linejoin: miter; stroke-miterlimit: 4; is-custom-font: none; font-file-url: none; fill: rgb(255,255,255); fill-rule: nonzero; opacity: 1;" transform=" translate(-45.3414, -142.4235)" d="M 85.6067 149.557 L 0.555361 189.573 L 5.07618 135.29 L 90.1275 95.274 L 85.6067 149.557 Z" stroke-linecap="round"/>
</g>
		<g transform="matrix(1 0 0 1 -103.4163 38.0495)" clip-path="url(#CLIPPATH_6)">
<clipPath id="CLIPPATH_6">
	<rect transform="matrix(0.9966 0.083 -0.083 0.9966 103.4169 -38.0497)" id="clip0_662_5745" x="-116" y="-95" rx="0" ry="0" width="232" height="190"/>
</clipPath>
<path style="stroke: none; stroke-width: 1; stroke-dasharray: none; stroke-linecap: butt; stroke-dashoffset: 0; stroke-linejoin: miter; stroke-miterlimit: 4; is-custom-font: none; font-file-url: none; fill: rgb(121,126,246); fill-rule: nonzero; opacity: 1;" transform=" translate(-20.5836, -143.0495)" d="M 30.6514 147.668 L 32.2743 128.181 L 10.5159 138.431 L 8.89297 157.918 L 30.6514 147.668 Z" stroke-linecap="round"/>
</g>
		<g transform="matrix(1 0 0 1 -105.4462 62.423)" clip-path="url(#CLIPPATH_7)">
<clipPath id="CLIPPATH_7">
	<rect transform="matrix(0.9966 0.083 -0.083 0.9966 105.4467 -62.4232)" id="clip0_662_5745" x="-116" y="-95" rx="0" ry="0" width="232" height="190"/>
</clipPath>
<path style="stroke: none; stroke-width: 1; stroke-dasharray: none; stroke-linecap: butt; stroke-dashoffset: 0; stroke-linejoin: miter; stroke-miterlimit: 4; is-custom-font: none; font-file-url: none; fill: rgb(121,126,246); fill-rule: nonzero; opacity: 1;" transform=" translate(-18.5538, -167.423)" d="M 8.44834 163.257 L 6.90081 181.839 L 28.6592 171.589 L 30.2068 153.007 L 8.44834 163.257 Z" stroke-linecap="round"/>
</g>
		<g transform="matrix(1 0 0 1 -50.9599 12.8945)" clip-path="url(#CLIPPATH_8)">
<clipPath id="CLIPPATH_8">
	<rect transform="matrix(0.9966 0.083 -0.083 0.9966 50.9604 -12.8947)" id="clip0_662_5745" x="-116" y="-95" rx="0" ry="0" width="232" height="190"/>
</clipPath>
<path style="stroke: none; stroke-width: 1; stroke-dasharray: none; stroke-linecap: butt; stroke-dashoffset: 0; stroke-linejoin: miter; stroke-miterlimit: 4; is-custom-font: none; font-file-url: none; fill: rgb(121,126,246); fill-rule: nonzero; opacity: 1;" transform=" translate(-73.0401, -117.8945)" d="M 83.1083 122.508 L 84.7312 103.021 L 62.972 113.281 L 61.3491 132.768 L 83.1083 122.508 Z" stroke-linecap="round"/>
</g>
		<g transform="matrix(1 0 0 1 -52.9894 37.263)" clip-path="url(#CLIPPATH_9)">
<clipPath id="CLIPPATH_9">
	<rect transform="matrix(0.9966 0.083 -0.083 0.9966 52.9899 -37.2632)" id="clip0_662_5745" x="-116" y="-95" rx="0" ry="0" width="232" height="190"/>
</clipPath>
<path style="stroke: none; stroke-width: 1; stroke-dasharray: none; stroke-linecap: butt; stroke-dashoffset: 0; stroke-linejoin: miter; stroke-miterlimit: 4; is-custom-font: none; font-file-url: none; fill: rgb(121,126,246); fill-rule: nonzero; opacity: 1;" transform=" translate(-71.0106, -142.263)" d="M 60.9044 138.107 L 59.3577 156.679 L 81.1161 146.429 L 82.6636 127.847 L 60.9044 138.107 Z" stroke-linecap="round"/>
</g>
		<g transform="matrix(1 0 0 1 -77.6602 25.435)" clip-path="url(#CLIPPATH_10)">
<clipPath id="CLIPPATH_10">
	<rect transform="matrix(0.9966 0.083 -0.083 0.9966 77.6607 -25.4352)" id="clip0_662_5745" x="-116" y="-95" rx="0" ry="0" width="232" height="190"/>
</clipPath>
<path style="stroke: none; stroke-width: 1; stroke-dasharray: none; stroke-linecap: butt; stroke-dashoffset: 0; stroke-linejoin: miter; stroke-miterlimit: 4; is-custom-font: none; font-file-url: none; fill: rgb(121,126,246); fill-rule: nonzero; opacity: 1;" transform=" translate(-46.3398, -130.435)" d="M 56.4076 135.054 L 58.0305 115.566 L 36.2721 125.816 L 34.6492 145.304 L 56.4076 135.054 Z" stroke-linecap="round"/>
</g>
		<g transform="matrix(1 0 0 1 -79.69 49.808)" clip-path="url(#CLIPPATH_11)">
<clipPath id="CLIPPATH_11">
	<rect transform="matrix(0.9966 0.083 -0.083 0.9966 79.6905 -49.8082)" id="clip0_662_5745" x="-116" y="-95" rx="0" ry="0" width="232" height="190"/>
</clipPath>
<path style="stroke: none; stroke-width: 1; stroke-dasharray: none; stroke-linecap: butt; stroke-dashoffset: 0; stroke-linejoin: miter; stroke-miterlimit: 4; is-custom-font: none; font-file-url: none; fill: rgb(121,126,246); fill-rule: nonzero; opacity: 1;" transform=" translate(-44.31, -154.808)" d="M 34.2046 150.642 L 32.657 169.224 L 54.4162 158.965 L 55.963 140.392 L 34.2046 150.642 Z" stroke-linecap="round"/>
</g>
		<g transform="matrix(1 0 0 1 78.6005 -42.0294)" clip-path="url(#CLIPPATH_12)">
<clipPath id="CLIPPATH_12">
	<rect transform="matrix(0.9966 0.083 -0.083 0.9966 -78.6 42.0292)" id="clip0_662_5745" x="-116" y="-95" rx="0" ry="0" width="232" height="190"/>
</clipPath>
<path style="stroke: none; stroke-width: 1; stroke-dasharray: none; stroke-linecap: butt; stroke-dashoffset: 0; stroke-linejoin: miter; stroke-miterlimit: 4; is-custom-font: none; font-file-url: none; fill: rgb(255,255,255); fill-rule: nonzero; opacity: 1;" transform=" translate(-202.6005, -62.9706)" d="M 161.446 60.4208 L 158.699 93.3963 L 176.279 105.593 L 241.981 74.6312 L 246.502 20.3482 L 161.446 60.4208 Z" stroke-linecap="round"/>
</g>
		<g transform="matrix(1 0 0 1 52.954 -36.8291)" clip-path="url(#CLIPPATH_13)">
<clipPath id="CLIPPATH_13">
	<rect transform="matrix(0.9966 0.083 -0.083 0.9966 -52.9535 36.829)" id="clip0_662_5745" x="-116" y="-95" rx="0" ry="0" width="232" height="190"/>
</clipPath>
<path style="stroke: none; stroke-width: 1; stroke-dasharray: none; stroke-linecap: butt; stroke-dashoffset: 0; stroke-linejoin: miter; stroke-miterlimit: 4; is-custom-font: none; font-file-url: none; fill: rgb(121,126,246); fill-rule: nonzero; opacity: 1;" transform=" translate(-176.954, -68.1709)" d="M 187.023 72.78 L 188.645 53.3022 L 166.886 63.5523 L 165.263 83.0395 L 187.023 72.78 Z" stroke-linecap="round"/>
</g>
		<g transform="matrix(1 0 0 1 51.332 -14.6559)" clip-path="url(#CLIPPATH_14)">
<clipPath id="CLIPPATH_14">
	<rect transform="matrix(0.9966 0.083 -0.083 0.9966 -51.3315 14.6557)" id="clip0_662_5745" x="-116" y="-95" rx="0" ry="0" width="232" height="190"/>
</clipPath>
<path style="stroke: none; stroke-width: 1; stroke-dasharray: none; stroke-linecap: butt; stroke-dashoffset: 0; stroke-linejoin: miter; stroke-miterlimit: 4; is-custom-font: none; font-file-url: none; fill: rgb(121,126,246); fill-rule: nonzero; opacity: 1;" transform=" translate(-175.332, -90.3441)" d="M 172.598 102.56 L 185.03 96.7004 L 186.577 78.1282 L 164.819 88.3782 L 164.087 97.1692 L 172.598 102.56 Z" stroke-linecap="round"/>
</g>
		<g transform="matrix(1 0 0 1 105.411 -61.9888)" clip-path="url(#CLIPPATH_15)">
<clipPath id="CLIPPATH_15">
	<rect transform="matrix(0.9966 0.083 -0.083 0.9966 -105.4105 61.9886)" id="clip0_662_5745" x="-116" y="-95" rx="0" ry="0" width="232" height="190"/>
</clipPath>
<path style="stroke: none; stroke-width: 1; stroke-dasharray: none; stroke-linecap: butt; stroke-dashoffset: 0; stroke-linejoin: miter; stroke-miterlimit: 4; is-custom-font: none; font-file-url: none; fill: rgb(121,126,246); fill-rule: nonzero; opacity: 1;" transform=" translate(-229.411, -43.0112)" d="M 239.479 47.6298 L 241.102 28.1426 L 219.343 38.3926 L 217.72 57.8798 L 239.479 47.6298 Z" stroke-linecap="round"/>
</g>
		<g transform="matrix(1 0 0 1 103.381 -37.6159)" clip-path="url(#CLIPPATH_16)">
<clipPath id="CLIPPATH_16">
	<rect transform="matrix(0.9966 0.083 -0.083 0.9966 -103.3805 37.6157)" id="clip0_662_5745" x="-116" y="-95" rx="0" ry="0" width="232" height="190"/>
</clipPath>
<path style="stroke: none; stroke-width: 1; stroke-dasharray: none; stroke-linecap: butt; stroke-dashoffset: 0; stroke-linejoin: miter; stroke-miterlimit: 4; is-custom-font: none; font-file-url: none; fill: rgb(121,126,246); fill-rule: nonzero; opacity: 1;" transform=" translate(-227.381, -67.3842)" d="M 217.276 63.2183 L 215.728 81.8 L 237.486 71.5499 L 239.034 52.9683 L 217.276 63.2183 Z" stroke-linecap="round"/>
</g>
		<g transform="matrix(1 0 0 1 79.6545 -49.3745)" clip-path="url(#CLIPPATH_17)">
<clipPath id="CLIPPATH_17">
	<rect transform="matrix(0.9966 0.083 -0.083 0.9966 -79.654 49.3744)" id="clip0_662_5745" x="-116" y="-95" rx="0" ry="0" width="232" height="190"/>
</clipPath>
<path style="stroke: none; stroke-width: 1; stroke-dasharray: none; stroke-linecap: butt; stroke-dashoffset: 0; stroke-linejoin: miter; stroke-miterlimit: 4; is-custom-font: none; font-file-url: none; fill: rgb(121,126,246); fill-rule: nonzero; opacity: 1;" transform=" translate(-203.6545, -55.6255)" d="M 213.722 60.244 L 215.345 40.7568 L 193.587 51.0069 L 191.964 70.4941 L 213.722 60.244 Z" stroke-linecap="round"/>
</g>
		<g transform="matrix(1 0 0 1 77.625 -25.0014)" clip-path="url(#CLIPPATH_18)">
<clipPath id="CLIPPATH_18">
	<rect transform="matrix(0.9966 0.083 -0.083 0.9966 -77.6245 25.0012)" id="clip0_662_5745" x="-116" y="-95" rx="0" ry="0" width="232" height="190"/>
</clipPath>
<path style="stroke: none; stroke-width: 1; stroke-dasharray: none; stroke-linecap: butt; stroke-dashoffset: 0; stroke-linejoin: miter; stroke-miterlimit: 4; is-custom-font: none; font-file-url: none; fill: rgb(121,126,246); fill-rule: nonzero; opacity: 1;" transform=" translate(-201.625, -79.9986)" d="M 191.519 75.8328 L 189.972 94.4145 L 211.73 84.1644 L 213.278 65.5828 L 191.519 75.8328 Z" stroke-linecap="round"/>
</g>
		<g transform="matrix(1 0 0 1 15.8285 17.1643)" clip-path="url(#CLIPPATH_19)">
<clipPath id="CLIPPATH_19">
	<rect transform="matrix(0.9966 0.083 -0.083 0.9966 -15.828 -17.1645)" id="clip0_662_5745" x="-116" y="-95" rx="0" ry="0" width="232" height="190"/>
</clipPath>
<path style="stroke: none; stroke-width: 1; stroke-dasharray: none; stroke-linecap: butt; stroke-dashoffset: 0; stroke-linejoin: miter; stroke-miterlimit: 4; is-custom-font: none; font-file-url: none; fill: rgb(179,182,255); fill-rule: nonzero; opacity: 1;" transform=" translate(-139.8285, -122.1644)" d="M 145.429 84.1039 C 141.385 81.3262 135.503 81.2068 128.718 84.4028 C 120.805 88.1507 112.12 97.7325 107.104 106.271 L 113.411 110.406 L 101.737 127.593 C 102.339 131.765 104.466 136.235 107.104 138.222 C 107.426 138.467 142.213 162.316 142.213 162.316 C 142.213 162.316 140.134 133.308 145.069 125.513 C 150.125 117.509 177.92 106.66 177.92 106.66 C 177.92 106.66 149.464 86.8809 145.429 84.1039 Z" stroke-linecap="round"/>
</g>
		<g transform="matrix(1 0 0 1 35.5108 29.1936)" clip-path="url(#CLIPPATH_20)">
<clipPath id="CLIPPATH_20">
	<rect transform="matrix(0.9966 0.083 -0.083 0.9966 -35.5103 -29.1938)" id="clip0_662_5745" x="-116" y="-95" rx="0" ry="0" width="232" height="190"/>
</clipPath>
<path style="stroke: none; stroke-width: 1; stroke-dasharray: none; stroke-linecap: butt; stroke-dashoffset: 0; stroke-linejoin: miter; stroke-miterlimit: 4; is-custom-font: none; font-file-url: none; fill: rgb(121,126,246); fill-rule: nonzero; opacity: 1;" transform=" translate(-159.5109, -134.1936)" d="M 149.005 155.834 C 145.693 153.849 143.819 149.647 144.306 143.799 C 145.236 132.631 154.248 119.695 164.434 114.902 C 169.52 112.476 173.948 112.589 176.977 114.674 C 178.37 115.635 181.535 117.903 184.033 119.63 L 184.134 118.423 C 183.3 106.529 173.986 101.527 161.781 107.282 C 148.222 113.666 136.23 130.893 134.992 145.759 C 133.814 159.907 142.745 166.767 155.249 161.977 L 156.119 160.663 C 153.374 158.715 150.399 156.672 149.005 155.834 Z" stroke-linecap="round"/>
</g>
		<g transform="matrix(1 0 0 1 51.3364 38.8998)" clip-path="url(#CLIPPATH_21)">
<clipPath id="CLIPPATH_21">
	<rect transform="matrix(0.9966 0.083 -0.083 0.9966 -51.3359 -38.8999)" id="clip0_662_5745" x="-116" y="-95" rx="0" ry="0" width="232" height="190"/>
</clipPath>
<path style="stroke: none; stroke-width: 1; stroke-dasharray: none; stroke-linecap: butt; stroke-dashoffset: 0; stroke-linejoin: miter; stroke-miterlimit: 4; is-custom-font: none; font-file-url: none; fill: rgb(121,126,246); fill-rule: nonzero; opacity: 1;" transform=" translate(-175.3364, -143.8997)" d="M 171.623 157.053 C 169.967 156.06 169.028 153.988 169.273 151.045 C 169.736 145.48 174.228 139.015 179.311 136.627 C 181.852 135.433 184.053 135.474 185.573 136.512 C 186.597 137.225 191.421 140.913 192.875 141.936 L 193.777 135.211 C 194.706 124.052 187.202 118.887 177.015 123.69 C 166.828 128.493 157.826 141.42 156.896 152.588 C 155.966 163.756 163.471 168.911 173.649 164.108 L 177.745 162.046 C 176.45 160.931 172.627 157.669 171.623 157.053 Z" stroke-linecap="round"/>
</g>
		<g transform="matrix(1 0 0 1 60.783 46.142)" clip-path="url(#CLIPPATH_22)">
<clipPath id="CLIPPATH_22">
	<rect transform="matrix(0.9966 0.083 -0.083 0.9966 -60.7825 -46.1422)" id="clip0_662_5745" x="-116" y="-95" rx="0" ry="0" width="232" height="190"/>
</clipPath>
<path style="stroke: none; stroke-width: 1; stroke-dasharray: none; stroke-linecap: butt; stroke-dashoffset: 0; stroke-linejoin: miter; stroke-miterlimit: 4; is-custom-font: none; font-file-url: none; fill: rgb(121,126,246); fill-rule: nonzero; opacity: 1;" transform=" translate(-184.783, -151.142)" d="M 190.688 155.418 C 194.744 149.822 195.388 143.371 192.127 141.009 C 188.865 138.648 182.934 141.27 178.878 146.866 C 174.822 152.462 174.178 158.913 177.439 161.275 C 180.7 163.636 186.632 161.014 190.688 155.418 Z" stroke-linecap="round"/>
</g>
		<g transform="matrix(1 0 0 1 -49.7475 -35.2383)" clip-path="url(#CLIPPATH_23)">
<clipPath id="CLIPPATH_23">
	<rect transform="matrix(0.9966 0.083 -0.083 0.9966 49.748 35.2382)" id="clip0_662_5745" x="-116" y="-95" rx="0" ry="0" width="232" height="190"/>
</clipPath>
<path style="stroke: none; stroke-width: 1; stroke-dasharray: none; stroke-linecap: butt; stroke-dashoffset: 0; stroke-linejoin: miter; stroke-miterlimit: 4; is-custom-font: none; font-file-url: none; fill: rgb(8,30,122); fill-rule: nonzero; opacity: 1;" transform=" translate(-74.2526, -69.7616)" d="M 62.0614 105.388 C 61.1602 104.8 41.1344 91.0515 40.8127 90.8062 C 36.7822 87.7447 34.8787 82.1915 35.4639 75.1644 C 36.7035 60.2802 48.7596 42.9631 62.3392 36.5623 C 69.0153 33.4142 75.0752 33.33 79.3983 36.3019 C 83.3611 39.0349 112.849 59.5459 113.145 59.751 L 112.605 60.5323 C 112.31 60.3083 82.8233 39.7879 78.8219 37.0612 C 74.8205 34.3345 69.0658 34.4061 62.7065 37.4002 C 49.4045 43.6626 37.5866 60.6291 36.3714 75.2209 C 35.8129 81.9273 37.5788 87.1937 41.3513 90.0438 C 41.673 90.289 55.3727 99.674 62.5639 104.604 L 62.0614 105.388 Z" stroke-linecap="round"/>
</g>
		<g transform="matrix(1 0 0 1 -22.0285 -26.3736)" clip-path="url(#CLIPPATH_24)">
<clipPath id="CLIPPATH_24">
	<rect transform="matrix(0.9966 0.083 -0.083 0.9966 22.029 26.3734)" id="clip0_662_5745" x="-116" y="-95" rx="0" ry="0" width="232" height="190"/>
</clipPath>
<path style="stroke: none; stroke-width: 1; stroke-dasharray: none; stroke-linecap: butt; stroke-dashoffset: 0; stroke-linejoin: miter; stroke-miterlimit: 4; is-custom-font: none; font-file-url: none; fill: rgb(8,30,122); fill-rule: nonzero; opacity: 1;" transform=" translate(-101.9715, -78.6264)" d="M 71.1436 99.1352 L 70.2 99.0567 C 71.4372 84.2007 83.4619 66.919 97.0116 60.5348 C 103.667 57.4039 109.719 57.3095 114.032 60.2807 C 115.883 61.5556 122.514 68.9937 133.743 82.3803 L 133.018 82.9848 C 122.005 69.8536 115.254 62.2724 113.494 61.0337 C 109.469 58.2575 103.757 58.3802 97.4174 61.3664 C 84.1422 67.65 72.3557 84.5812 71.1436 99.1352 Z" stroke-linecap="round"/>
</g>
		<g transform="matrix(1 0 0 1 -78.1867 37.4601)" clip-path="url(#CLIPPATH_25)">
<clipPath id="CLIPPATH_25">
	<rect transform="matrix(0.9966 0.083 -0.083 0.9966 78.1873 -37.4602)" id="clip0_662_5745" x="-116" y="-95" rx="0" ry="0" width="232" height="190"/>
</clipPath>
<path style="stroke: none; stroke-width: 1; stroke-dasharray: none; stroke-linecap: butt; stroke-dashoffset: 0; stroke-linejoin: miter; stroke-miterlimit: 4; is-custom-font: none; font-file-url: none; fill: rgb(8,30,122); fill-rule: nonzero; opacity: 1;" transform=" translate(-45.8133, -142.4601)" d="M 0.98792 190.084 C 0.904362 190.079 0.82422 190.049 0.757501 189.998 C 0.689616 189.951 0.63524 189.887 0.599778 189.813 C 0.564316 189.738 0.549004 189.656 0.555361 189.573 L 5.07618 135.29 C 5.08385 135.207 5.11272 135.127 5.16006 135.057 C 5.20739 134.988 5.27162 134.932 5.34666 134.895 L 90.398 94.8788 C 90.4731 94.8434 90.5563 94.8284 90.6392 94.8353 C 90.722 94.8422 90.8015 94.8707 90.8698 94.9181 C 90.9376 94.9674 90.9917 95.0332 91.0269 95.1093 C 91.0622 95.1854 91.0774 95.2692 91.0712 95.3528 L 86.5503 149.636 C 86.543 149.718 86.5142 149.797 86.4669 149.865 C 86.4196 149.932 86.3554 149.987 86.2806 150.022 L 1.22934 190.038 C 1.15517 190.077 1.0712 190.093 0.98792 190.084 Z M 5.9955 135.661 L 1.56502 188.86 L 85.6263 149.321 L 90.0568 96.1231 L 5.9955 135.661 Z" stroke-linecap="round"/>
</g>
		<g transform="matrix(1 0 0 1 -24.3505 17.3647)" clip-path="url(#CLIPPATH_26)">
<clipPath id="CLIPPATH_26">
	<rect transform="matrix(0.9966 0.083 -0.083 0.9966 24.351 -17.3649)" id="clip0_662_5745" x="-116" y="-95" rx="0" ry="0" width="232" height="190"/>
</clipPath>
<path style="stroke: none; stroke-width: 1; stroke-dasharray: none; stroke-linecap: butt; stroke-dashoffset: 0; stroke-linejoin: miter; stroke-miterlimit: 4; is-custom-font: none; font-file-url: none; fill: rgb(8,30,122); fill-rule: nonzero; opacity: 1;" transform=" translate(-99.6495, -122.3648)" d="M 86.1438 149.839 L 85.3715 149.3 L 112.773 110.542 L 90.0174 95.6829 L 90.5395 94.8905 L 113.701 110.012 C 113.754 110.047 113.8 110.093 113.834 110.146 C 113.869 110.2 113.892 110.26 113.903 110.323 C 113.923 110.383 113.931 110.447 113.926 110.51 C 113.92 110.573 113.902 110.635 113.872 110.691 L 86.1438 149.839 Z" stroke-linecap="round"/>
</g>
		<g transform="matrix(1 0 0 1 -103.9044 37.9976)" clip-path="url(#CLIPPATH_27)">
<clipPath id="CLIPPATH_27">
	<rect transform="matrix(0.9966 0.083 -0.083 0.9966 103.9049 -37.9978)" id="clip0_662_5745" x="-116" y="-95" rx="0" ry="0" width="232" height="190"/>
</clipPath>
<path style="stroke: none; stroke-width: 1; stroke-dasharray: none; stroke-linecap: butt; stroke-dashoffset: 0; stroke-linejoin: miter; stroke-miterlimit: 4; is-custom-font: none; font-file-url: none; fill: rgb(8,30,122); fill-rule: nonzero; opacity: 1;" transform=" translate(-20.0956, -142.9977)" d="M 8.85919 158.324 L 7.91552 158.245 L 9.57223 138.352 C 9.57958 138.27 9.60835 138.191 9.65566 138.123 C 9.70297 138.056 9.76719 138.002 9.84193 137.966 L 31.6004 127.716 C 31.6755 127.681 31.7587 127.666 31.8415 127.673 C 31.9244 127.68 32.0039 127.708 32.0722 127.756 C 32.1401 127.803 32.1944 127.867 32.2299 127.941 C 32.2654 128.016 32.2807 128.099 32.2743 128.181 L 30.6412 147.791 L 29.6975 147.712 L 31.2623 128.923 L 10.4931 138.704 L 8.85919 158.324 Z" stroke-linecap="round"/>
</g>
		<g transform="matrix(1 0 0 1 -105.9149 62.3603)" clip-path="url(#CLIPPATH_28)">
<clipPath id="CLIPPATH_28">
	<rect transform="matrix(0.9966 0.083 -0.083 0.9966 105.9154 -62.3605)" id="clip0_662_5745" x="-116" y="-95" rx="0" ry="0" width="232" height="190"/>
</clipPath>
<path style="stroke: none; stroke-width: 1; stroke-dasharray: none; stroke-linecap: butt; stroke-dashoffset: 0; stroke-linejoin: miter; stroke-miterlimit: 4; is-custom-font: none; font-file-url: none; fill: rgb(8,30,122); fill-rule: nonzero; opacity: 1;" transform=" translate(-18.0851, -167.3604)" d="M 6.39284 182.233 C 6.30928 182.228 6.22914 182.198 6.16242 182.147 C 6.09454 182.1 6.04016 182.036 6.0047 181.962 C 5.96924 181.887 5.95392 181.804 5.96028 181.722 L 7.50781 163.14 C 7.51516 163.058 7.54392 162.979 7.59123 162.912 C 7.63855 162.844 7.70277 162.79 7.77751 162.755 L 29.5359 152.504 C 29.6111 152.469 29.6943 152.454 29.7771 152.461 C 29.8599 152.468 29.9395 152.496 30.0078 152.544 C 30.0757 152.591 30.13 152.655 30.1655 152.729 C 30.201 152.804 30.2163 152.887 30.2099 152.969 L 28.6624 171.551 C 28.6533 171.632 28.6238 171.711 28.5767 171.778 C 28.5296 171.845 28.4663 171.9 28.3927 171.937 L 6.62876 182.253 C 6.54984 182.269 6.46805 182.262 6.39284 182.233 Z M 8.42556 163.53 L 6.96915 181.018 L 27.7383 171.236 L 29.1955 153.739 L 8.42556 163.53 Z" stroke-linecap="round"/>
</g>
		<g transform="matrix(1 0 0 1 -51.4117 12.4086)" clip-path="url(#CLIPPATH_29)">
<clipPath id="CLIPPATH_29">
	<rect transform="matrix(0.9966 0.083 -0.083 0.9966 51.4123 -12.4088)" id="clip0_662_5745" x="-116" y="-95" rx="0" ry="0" width="232" height="190"/>
</clipPath>
<path style="stroke: none; stroke-width: 1; stroke-dasharray: none; stroke-linecap: butt; stroke-dashoffset: 0; stroke-linejoin: miter; stroke-miterlimit: 4; is-custom-font: none; font-file-url: none; fill: rgb(8,30,122); fill-rule: nonzero; opacity: 1;" transform=" translate(-72.5883, -117.4087)" d="M 61.3875 132.306 L 60.4439 132.227 L 62.0291 113.193 C 62.0382 113.111 62.0677 113.033 62.1148 112.965 C 62.1619 112.898 62.2252 112.843 62.2988 112.807 L 84.0572 102.557 C 84.1324 102.521 84.2156 102.506 84.2984 102.513 C 84.3812 102.52 84.4608 102.549 84.5291 102.596 C 84.597 102.643 84.6513 102.707 84.6868 102.782 C 84.7223 102.856 84.7376 102.939 84.7312 103.021 L 83.091 122.716 L 82.1473 122.637 L 83.7184 103.773 L 62.95 113.545 L 61.3875 132.306 Z" stroke-linecap="round"/>
</g>
		<g transform="matrix(1 0 0 1 -53.4636 37.2476)" clip-path="url(#CLIPPATH_30)">
<clipPath id="CLIPPATH_30">
	<rect transform="matrix(0.9966 0.083 -0.083 0.9966 53.4642 -37.2478)" id="clip0_662_5745" x="-116" y="-95" rx="0" ry="0" width="232" height="190"/>
</clipPath>
<path style="stroke: none; stroke-width: 1; stroke-dasharray: none; stroke-linecap: butt; stroke-dashoffset: 0; stroke-linejoin: miter; stroke-miterlimit: 4; is-custom-font: none; font-file-url: none; fill: rgb(8,30,122); fill-rule: nonzero; opacity: 1;" transform=" translate(-70.5364, -142.2477)" d="M 58.8427 157.158 C 58.7591 157.153 58.679 157.123 58.6122 157.073 C 58.5436 157.026 58.4887 156.962 58.4532 156.888 C 58.4176 156.813 58.4028 156.73 58.4101 156.647 L 59.9608 138.028 C 59.9684 137.945 59.9973 137.864 60.0446 137.795 C 60.092 137.726 60.1562 137.67 60.2312 137.633 L 81.9897 127.383 C 82.0649 127.347 82.148 127.332 82.2309 127.339 C 82.3137 127.346 82.3932 127.375 82.4615 127.422 C 82.5281 127.47 82.5814 127.535 82.6167 127.609 C 82.6521 127.683 82.6682 127.765 82.6637 127.847 L 81.1161 146.429 C 81.1088 146.511 81.08 146.59 81.0327 146.658 C 80.9854 146.725 80.9212 146.78 80.8464 146.815 L 59.088 157.065 C 59.0181 157.121 58.9323 157.154 58.8427 157.158 Z M 60.8856 138.333 L 59.4284 155.83 L 80.1984 146.039 L 81.6516 128.589 L 60.8856 138.333 Z" stroke-linecap="round"/>
</g>
		<g transform="matrix(1 0 0 1 -78.1328 25.4043)" clip-path="url(#CLIPPATH_31)">
<clipPath id="CLIPPATH_31">
	<rect transform="matrix(0.9966 0.083 -0.083 0.9966 78.1333 -25.4045)" id="clip0_662_5745" x="-116" y="-95" rx="0" ry="0" width="232" height="190"/>
</clipPath>
<path style="stroke: none; stroke-width: 1; stroke-dasharray: none; stroke-linecap: butt; stroke-dashoffset: 0; stroke-linejoin: miter; stroke-miterlimit: 4; is-custom-font: none; font-file-url: none; fill: rgb(8,30,122); fill-rule: nonzero; opacity: 1;" transform=" translate(-45.8672, -130.4044)" d="M 34.1381 145.736 C 34.0545 145.731 33.9744 145.701 33.9076 145.65 C 33.8398 145.603 33.7854 145.539 33.7499 145.465 C 33.7145 145.39 33.6992 145.307 33.7055 145.225 L 35.3269 125.757 C 35.3345 125.673 35.3634 125.593 35.4108 125.524 C 35.4581 125.455 35.5223 125.399 35.5974 125.361 L 57.3558 115.111 C 57.431 115.076 57.5141 115.061 57.597 115.068 C 57.6798 115.075 57.7593 115.103 57.8276 115.151 C 57.8954 115.2 57.9495 115.266 57.9848 115.342 C 58.02 115.418 58.0352 115.502 58.029 115.585 L 56.406 135.073 C 56.3987 135.155 56.3699 135.234 56.3226 135.301 C 56.2753 135.369 56.2111 135.423 56.1363 135.458 L 34.3779 145.709 C 34.3023 145.741 34.219 145.75 34.1381 145.736 Z M 36.2493 126.09 L 34.7175 144.483 L 55.4867 134.702 L 57.0193 116.299 L 36.2493 126.09 Z" stroke-linecap="round"/>
</g>
		<g transform="matrix(1 0 0 1 -80.1626 49.986)" clip-path="url(#CLIPPATH_32)">
<clipPath id="CLIPPATH_32">
	<rect transform="matrix(0.9966 0.083 -0.083 0.9966 80.1631 -49.9861)" id="clip0_662_5745" x="-116" y="-95" rx="0" ry="0" width="232" height="190"/>
</clipPath>
<path style="stroke: none; stroke-width: 1; stroke-dasharray: none; stroke-linecap: butt; stroke-dashoffset: 0; stroke-linejoin: miter; stroke-miterlimit: 4; is-custom-font: none; font-file-url: none; fill: rgb(8,30,122); fill-rule: nonzero; opacity: 1;" transform=" translate(-43.8374, -154.986)" d="M 32.1467 169.647 C 32.0646 169.641 31.9853 169.614 31.9155 169.571 C 31.8489 169.522 31.7956 169.458 31.7602 169.384 C 31.7249 169.31 31.7088 169.228 31.7133 169.146 L 33.2365 150.856 L 34.1802 150.935 L 32.7253 168.404 L 53.4953 158.613 L 55.0185 140.323 L 55.9622 140.402 L 54.4162 158.965 C 54.4085 159.048 54.3797 159.128 54.3323 159.197 C 54.285 159.267 54.2208 159.323 54.1457 159.36 L 32.3873 169.61 C 32.3112 169.642 32.2287 169.654 32.1467 169.647 Z" stroke-linecap="round"/>
</g>
		<g transform="matrix(1 0 0 1 79.1713 -42.5169)" clip-path="url(#CLIPPATH_33)">
<clipPath id="CLIPPATH_33">
	<rect transform="matrix(0.9966 0.083 -0.083 0.9966 -79.1708 42.5167)" id="clip0_662_5745" x="-116" y="-95" rx="0" ry="0" width="232" height="190"/>
</clipPath>
<path style="stroke: none; stroke-width: 1; stroke-dasharray: none; stroke-linecap: butt; stroke-dashoffset: 0; stroke-linejoin: miter; stroke-miterlimit: 4; is-custom-font: none; font-file-url: none; fill: rgb(8,30,122); fill-rule: nonzero; opacity: 1;" transform=" translate(-203.1713, -62.4831)" d="M 179.099 105.049 L 178.696 104.189 L 241.997 74.3192 L 246.424 21.1681 L 162.367 60.773 L 159.84 91.1168 L 158.896 91.0382 L 161.446 60.4209 C 161.453 60.3386 161.482 60.2597 161.529 60.192 C 161.576 60.1243 161.641 60.0701 161.715 60.0349 L 246.771 19.9623 C 246.847 19.9269 246.93 19.9119 247.013 19.9188 C 247.095 19.9256 247.175 19.9542 247.243 20.0016 C 247.311 20.0487 247.366 20.1127 247.401 20.1873 C 247.437 20.2619 247.452 20.3445 247.445 20.4268 L 242.925 74.7099 C 242.917 74.7933 242.888 74.8735 242.841 74.9426 C 242.793 75.0118 242.729 75.0678 242.654 75.1052 L 179.099 105.049 Z" stroke-linecap="round"/>
</g>
		<g transform="matrix(1 0 0 1 30.551 -34.4898)" clip-path="url(#CLIPPATH_34)">
<clipPath id="CLIPPATH_34">
	<rect transform="matrix(0.9966 0.083 -0.083 0.9966 -30.5505 34.4896)" id="clip0_662_5745" x="-116" y="-95" rx="0" ry="0" width="232" height="190"/>
</clipPath>
<path style="stroke: none; stroke-width: 1; stroke-dasharray: none; stroke-linecap: butt; stroke-dashoffset: 0; stroke-linejoin: miter; stroke-miterlimit: 4; is-custom-font: none; font-file-url: none; fill: rgb(8,30,122); fill-rule: nonzero; opacity: 1;" transform=" translate(-154.551, -70.5102)" d="M 161.217 60.1726 L 147.109 80.3047 L 147.885 80.8478 L 161.993 60.7157 L 161.217 60.1726 Z" stroke-linecap="round"/>
</g>
		<g transform="matrix(1 0 0 1 52.4824 -37.084)" clip-path="url(#CLIPPATH_35)">
<clipPath id="CLIPPATH_35">
	<rect transform="matrix(0.9966 0.083 -0.083 0.9966 -52.4819 37.0838)" id="clip0_662_5745" x="-116" y="-95" rx="0" ry="0" width="232" height="190"/>
</clipPath>
<path style="stroke: none; stroke-width: 1; stroke-dasharray: none; stroke-linecap: butt; stroke-dashoffset: 0; stroke-linejoin: miter; stroke-miterlimit: 4; is-custom-font: none; font-file-url: none; fill: rgb(8,30,122); fill-rule: nonzero; opacity: 1;" transform=" translate(-176.4824, -67.916)" d="M 165.265 83.0206 L 164.321 82.942 L 165.94 63.5019 C 165.948 63.4185 165.977 63.3383 166.024 63.2691 C 166.071 63.1999 166.136 63.144 166.211 63.1066 L 187.969 52.8565 C 188.044 52.8211 188.127 52.8061 188.21 52.813 C 188.293 52.8199 188.373 52.8484 188.441 52.8958 C 188.508 52.9442 188.561 53.0084 188.596 53.0827 C 188.632 53.157 188.648 53.2389 188.643 53.321 L 187.047 72.4875 L 186.103 72.4089 L 187.633 54.0348 L 166.863 63.8258 L 165.265 83.0206 Z" stroke-linecap="round"/>
</g>
		<g transform="matrix(1 0 0 1 50.8618 -14.7033)" clip-path="url(#CLIPPATH_36)">
<clipPath id="CLIPPATH_36">
	<rect transform="matrix(0.9966 0.083 -0.083 0.9966 -50.8613 14.7031)" id="clip0_662_5745" x="-116" y="-95" rx="0" ry="0" width="232" height="190"/>
</clipPath>
<path style="stroke: none; stroke-width: 1; stroke-dasharray: none; stroke-linecap: butt; stroke-dashoffset: 0; stroke-linejoin: miter; stroke-miterlimit: 4; is-custom-font: none; font-file-url: none; fill: rgb(8,30,122); fill-rule: nonzero; opacity: 1;" transform=" translate(-174.8618, -90.2968)" d="M 172.326 102.975 L 171.922 102.124 L 184.109 96.3577 L 185.566 78.8608 L 164.796 88.6518 L 164.089 97.1409 L 163.145 97.0623 L 163.875 88.2996 C 163.882 88.2174 163.911 88.1385 163.958 88.0708 C 164.006 88.0031 164.07 87.9489 164.145 87.9137 L 185.903 77.6637 C 185.978 77.6283 186.061 77.6133 186.144 77.6201 C 186.226 77.6268 186.306 77.6551 186.374 77.7021 C 186.442 77.7492 186.497 77.8133 186.532 77.888 C 186.568 77.9628 186.584 78.0456 186.577 78.1282 L 185.03 96.7004 C 185.023 96.7839 184.994 96.864 184.947 96.9332 C 184.899 97.0024 184.835 97.0584 184.76 97.0958 L 172.326 102.975 Z" stroke-linecap="round"/>
</g>
		<g transform="matrix(1 0 0 1 104.9371 -62.2122)" clip-path="url(#CLIPPATH_37)">
<clipPath id="CLIPPATH_37">
	<rect transform="matrix(0.9966 0.083 -0.083 0.9966 -104.9366 62.212)" id="clip0_662_5745" x="-116" y="-95" rx="0" ry="0" width="232" height="190"/>
</clipPath>
<path style="stroke: none; stroke-width: 1; stroke-dasharray: none; stroke-linecap: butt; stroke-dashoffset: 0; stroke-linejoin: miter; stroke-miterlimit: 4; is-custom-font: none; font-file-url: none; fill: rgb(8,30,122); fill-rule: nonzero; opacity: 1;" transform=" translate(-228.9371, -42.7879)" d="M 217.715 57.9459 L 216.771 57.8673 L 218.399 38.314 C 218.407 38.2318 218.436 38.1529 218.483 38.0852 C 218.53 38.0175 218.594 37.9633 218.669 37.9281 L 240.428 27.6686 C 240.505 27.6374 240.587 27.6248 240.669 27.6316 C 240.751 27.6384 240.83 27.6646 240.9 27.7079 C 240.968 27.7572 241.022 27.8231 241.057 27.8991 C 241.093 27.9752 241.108 28.059 241.102 28.1426 L 239.497 47.4128 L 238.553 47.3342 L 240.093 28.8375 L 219.32 38.6662 L 217.715 57.9459 Z" stroke-linecap="round"/>
</g>
		<g transform="matrix(1 0 0 1 102.909 -37.6542)" clip-path="url(#CLIPPATH_38)">
<clipPath id="CLIPPATH_38">
	<rect transform="matrix(0.9966 0.083 -0.083 0.9966 -102.9085 37.6541)" id="clip0_662_5745" x="-116" y="-95" rx="0" ry="0" width="232" height="190"/>
</clipPath>
<path style="stroke: none; stroke-width: 1; stroke-dasharray: none; stroke-linecap: butt; stroke-dashoffset: 0; stroke-linejoin: miter; stroke-miterlimit: 4; is-custom-font: none; font-file-url: none; fill: rgb(8,30,122); fill-rule: nonzero; opacity: 1;" transform=" translate(-226.909, -67.3457)" d="M 215.217 82.2323 C 215.134 82.2225 215.055 82.1932 214.987 82.1466 C 214.919 82.0995 214.864 82.0355 214.829 81.9609 C 214.793 81.8863 214.778 81.8037 214.784 81.7214 L 216.332 63.1397 C 216.339 63.0575 216.368 62.9785 216.415 62.9108 C 216.463 62.8431 216.527 62.789 216.602 62.7538 L 238.36 52.5037 C 238.435 52.4683 238.518 52.4533 238.601 52.4602 C 238.684 52.4671 238.764 52.4957 238.832 52.543 C 238.9 52.5901 238.954 52.6541 238.99 52.7287 C 239.025 52.8033 239.04 52.8859 239.034 52.9683 L 237.487 71.5405 C 237.48 71.624 237.451 71.7041 237.403 71.7733 C 237.356 71.8425 237.292 71.8985 237.217 71.9359 L 215.458 82.1859 C 215.383 82.2204 215.3 82.2363 215.217 82.2323 Z M 217.253 63.4918 L 215.799 80.9511 L 236.568 71.1695 L 238.022 53.7103 L 217.253 63.4918 Z" stroke-linecap="round"/>
</g>
		<g transform="matrix(1 0 0 1 79.1826 -49.4122)" clip-path="url(#CLIPPATH_39)">
<clipPath id="CLIPPATH_39">
	<rect transform="matrix(0.9966 0.083 -0.083 0.9966 -79.1821 49.4121)" id="clip0_662_5745" x="-116" y="-95" rx="0" ry="0" width="232" height="190"/>
</clipPath>
<path style="stroke: none; stroke-width: 1; stroke-dasharray: none; stroke-linecap: butt; stroke-dashoffset: 0; stroke-linejoin: miter; stroke-miterlimit: 4; is-custom-font: none; font-file-url: none; fill: rgb(8,30,122); fill-rule: nonzero; opacity: 1;" transform=" translate(-203.1827, -55.5878)" d="M 191.453 70.9264 C 191.371 70.9199 191.291 70.8938 191.222 70.8501 C 191.154 70.8008 191.1 70.735 191.065 70.6589 C 191.029 70.5829 191.014 70.4991 191.02 70.4155 L 192.643 50.9283 C 192.651 50.846 192.679 50.7671 192.727 50.6994 C 192.774 50.6317 192.838 50.5776 192.913 50.5424 L 214.671 40.2923 C 214.747 40.2569 214.83 40.2419 214.913 40.2488 C 214.995 40.2557 215.075 40.2842 215.143 40.3316 C 215.211 40.3787 215.265 40.4427 215.301 40.5173 C 215.336 40.5919 215.352 40.6745 215.345 40.7568 L 213.722 60.244 C 213.715 60.3275 213.686 60.4076 213.639 60.4768 C 213.591 60.546 213.527 60.602 213.452 60.6394 L 191.694 70.8894 C 191.617 70.9209 191.535 70.9336 191.453 70.9264 Z M 193.564 51.2804 L 192.032 69.6829 L 212.802 59.8919 L 214.333 41.4989 L 193.564 51.2804 Z" stroke-linecap="round"/>
</g>
		<g transform="matrix(1 0 0 1 77.1693 -25.0261)" clip-path="url(#CLIPPATH_40)">
<clipPath id="CLIPPATH_40">
	<rect transform="matrix(0.9966 0.083 -0.083 0.9966 -77.1688 25.026)" id="clip0_662_5745" x="-116" y="-95" rx="0" ry="0" width="232" height="190"/>
</clipPath>
<path style="stroke: none; stroke-width: 1; stroke-dasharray: none; stroke-linecap: butt; stroke-dashoffset: 0; stroke-linejoin: miter; stroke-miterlimit: 4; is-custom-font: none; font-file-url: none; fill: rgb(8,30,122); fill-rule: nonzero; opacity: 1;" transform=" translate(-201.1694, -79.9739)" d="M 189.461 94.8469 C 189.377 94.8416 189.297 94.8118 189.23 94.7612 C 189.162 94.7141 189.108 94.6501 189.073 94.5755 C 189.037 94.5009 189.022 94.4183 189.028 94.336 L 190.586 75.6317 L 191.53 75.7102 L 190.037 93.6317 L 210.806 83.8501 L 212.368 65.0986 L 213.312 65.1772 L 211.73 84.1645 C 211.723 84.2468 211.694 84.3257 211.647 84.3934 C 211.6 84.4611 211.535 84.5152 211.461 84.5504 L 189.702 94.8005 C 189.628 94.8393 189.544 94.8554 189.461 94.8469 Z" stroke-linecap="round"/>
</g>
		<g transform="matrix(1 0 0 1 19.0705 -10.6834)" clip-path="url(#CLIPPATH_41)">
<clipPath id="CLIPPATH_41">
	<rect transform="matrix(0.9966 0.083 -0.083 0.9966 -19.07 10.6833)" id="clip0_662_5745" x="-116" y="-95" rx="0" ry="0" width="232" height="190"/>
</clipPath>
<path style="stroke: none; stroke-width: 1; stroke-dasharray: none; stroke-linecap: butt; stroke-dashoffset: 0; stroke-linejoin: miter; stroke-miterlimit: 4; is-custom-font: none; font-file-url: none; fill: rgb(8,30,122); fill-rule: nonzero; opacity: 1;" transform=" translate(-143.0705, -94.3165)" d="M 108.741 104.413 L 107.926 103.937 C 113.222 94.8801 120.685 87.6469 128.516 83.9777 C 135.241 80.8146 141.34 80.7242 145.689 83.7173 C 149.68 86.4621 177.931 106.072 178.215 106.314 L 177.675 107.096 C 177.388 106.891 149.145 87.2913 145.155 84.5466 C 141.164 81.8018 135.318 81.8278 128.917 84.8753 C 121.295 88.429 113.945 95.5576 108.741 104.413 Z" stroke-linecap="round"/>
</g>
		<g transform="matrix(1 0 0 1 -1.9515 40.758)" clip-path="url(#CLIPPATH_42)">
<clipPath id="CLIPPATH_42">
	<rect transform="matrix(0.9966 0.083 -0.083 0.9966 1.952 -40.7582)" id="clip0_662_5745" x="-116" y="-95" rx="0" ry="0" width="232" height="190"/>
</clipPath>
<path style="stroke: none; stroke-width: 1; stroke-dasharray: none; stroke-linecap: butt; stroke-dashoffset: 0; stroke-linejoin: miter; stroke-miterlimit: 4; is-custom-font: none; font-file-url: none; fill: rgb(8,30,122); fill-rule: nonzero; opacity: 1;" transform=" translate(-122.0485, -145.758)" d="M 141.971 162.704 C 138.373 160.268 107.166 138.844 106.844 138.608 C 104.066 136.477 102.261 133.164 101.614 128.95 L 102.576 128.812 C 103.196 132.777 104.837 135.896 107.429 137.85 C 107.931 138.214 142.179 161.696 142.483 161.921 L 141.971 162.704 Z" stroke-linecap="round"/>
</g>
		<g transform="matrix(1 0 0 1 35.5601 29.1853)" clip-path="url(#CLIPPATH_43)">
<clipPath id="CLIPPATH_43">
	<rect transform="matrix(0.9966 0.083 -0.083 0.9966 -35.5595 -29.1855)" id="clip0_662_5745" x="-116" y="-95" rx="0" ry="0" width="232" height="190"/>
</clipPath>
<path style="stroke: none; stroke-width: 1; stroke-dasharray: none; stroke-linecap: butt; stroke-dashoffset: 0; stroke-linejoin: miter; stroke-miterlimit: 4; is-custom-font: none; font-file-url: none; fill: rgb(8,30,122); fill-rule: nonzero; opacity: 1;" transform=" translate(-159.56, -134.1853)" d="M 146.527 163.91 C 144.161 163.749 141.89 162.918 139.98 161.513 C 135.893 158.446 133.966 152.834 134.558 145.722 C 135.806 130.734 147.948 113.301 161.617 106.851 C 167.937 103.882 173.783 103.628 178.087 106.142 C 181.921 108.361 184.255 112.744 184.667 118.401 L 183.712 118.464 C 183.339 113.133 181.17 109.049 177.619 106.968 C 173.596 104.609 168.063 104.871 162.03 107.711 C 148.639 114.023 136.734 131.116 135.511 145.802 C 134.946 152.583 136.738 157.89 140.556 160.753 C 144.131 163.473 149.352 163.756 155.124 161.539 L 155.469 162.423 C 152.638 163.584 149.582 164.092 146.527 163.91 Z" stroke-linecap="round"/>
</g>
		<g transform="matrix(1 0 0 1 42.6158 34.0143)" clip-path="url(#CLIPPATH_44)">
<clipPath id="CLIPPATH_44">
	<rect transform="matrix(0.9966 0.083 -0.083 0.9966 -42.6153 -34.0145)" id="clip0_662_5745" x="-116" y="-95" rx="0" ry="0" width="232" height="190"/>
</clipPath>
<path style="stroke: none; stroke-width: 1; stroke-dasharray: none; stroke-linecap: butt; stroke-dashoffset: 0; stroke-linejoin: miter; stroke-miterlimit: 4; is-custom-font: none; font-file-url: none; fill: rgb(8,30,122); fill-rule: nonzero; opacity: 1;" transform=" translate(-166.6158, -139.0143)" d="M 162.061 165.413 C 161.953 165.347 151.722 158.008 148.762 156.242 C 145.144 154.041 143.4 149.545 143.881 143.763 C 144.824 132.445 153.965 119.33 164.271 114.47 C 169.357 112.045 173.978 112.012 177.284 114.291 C 180.286 116.355 189.339 122.779 189.429 122.844 L 188.88 123.615 C 188.79 123.55 179.745 117.155 176.744 115.072 C 173.744 112.989 169.441 113.087 164.674 115.33 C 154.645 120.061 145.741 132.844 144.825 143.842 C 144.374 149.256 145.993 153.437 149.248 155.427 C 152.244 157.215 162.189 164.341 162.609 164.651 L 162.061 165.413 Z" stroke-linecap="round"/>
</g>
		<g transform="matrix(1 0 0 1 51.366 38.891)" clip-path="url(#CLIPPATH_45)">
<clipPath id="CLIPPATH_45">
	<rect transform="matrix(0.9966 0.083 -0.083 0.9966 -51.3655 -38.8912)" id="clip0_662_5745" x="-116" y="-95" rx="0" ry="0" width="232" height="190"/>
</clipPath>
<path style="stroke: none; stroke-width: 1; stroke-dasharray: none; stroke-linecap: butt; stroke-dashoffset: 0; stroke-linejoin: miter; stroke-miterlimit: 4; is-custom-font: none; font-file-url: none; fill: rgb(8,30,122); fill-rule: nonzero; opacity: 1;" transform=" translate(-175.366, -143.891)" d="M 165.555 166.359 C 163.864 166.236 162.235 165.664 160.838 164.703 C 157.55 162.425 155.99 158.107 156.453 152.551 C 157.395 141.232 166.545 128.118 176.842 123.258 C 181.947 120.834 186.549 120.799 189.892 123.1 C 193.235 125.402 194.74 129.697 194.277 135.252 L 193.333 135.174 C 193.767 129.967 192.353 125.955 189.352 123.872 C 186.352 121.789 182.032 121.866 177.245 124.118 C 167.217 128.839 158.312 141.631 157.396 152.629 C 156.963 157.836 158.377 161.848 161.377 163.931 C 164.377 166.014 168.698 165.937 173.475 163.685 L 173.878 164.545 C 171.309 165.863 168.44 166.488 165.555 166.359 Z" stroke-linecap="round"/>
</g>
		<g transform="matrix(1 0 0 1 56.357 43.5936)" clip-path="url(#CLIPPATH_46)">
<clipPath id="CLIPPATH_46">
	<rect transform="matrix(0.9966 0.083 -0.083 0.9966 -56.3565 -43.5937)" id="clip0_662_5745" x="-116" y="-95" rx="0" ry="0" width="232" height="190"/>
</clipPath>
<path style="stroke: none; stroke-width: 1; stroke-dasharray: none; stroke-linecap: butt; stroke-dashoffset: 0; stroke-linejoin: miter; stroke-miterlimit: 4; is-custom-font: none; font-file-url: none; fill: rgb(8,30,122); fill-rule: nonzero; opacity: 1;" transform=" translate(-180.3571, -148.5935)" d="M 176.91 161.92 C 175.143 160.343 173.297 158.858 171.379 157.47 C 169.505 156.364 168.58 153.998 168.829 151.017 C 169.3 145.358 173.924 138.667 179.136 136.214 C 181.757 134.979 184.144 134.95 185.87 136.139 C 187.377 137.214 191.925 140.442 191.925 140.442 L 191.377 141.213 C 191.377 141.213 186.837 137.986 185.33 136.91 C 183.824 135.835 181.836 135.974 179.541 137.055 C 174.596 139.379 170.271 145.676 169.82 151.091 C 169.603 153.694 170.384 155.725 171.913 156.65 C 173.881 158.071 175.775 159.592 177.587 161.207 L 176.91 161.92 Z" stroke-linecap="round"/>
</g>
		<g transform="matrix(1 0 0 1 60.249 46.551)" clip-path="url(#CLIPPATH_47)">
<clipPath id="CLIPPATH_47">
	<rect transform="matrix(0.9966 0.083 -0.083 0.9966 -60.2484 -46.5513)" id="clip0_662_5745" x="-116" y="-95" rx="0" ry="0" width="232" height="190"/>
</clipPath>
<path style="stroke: none; stroke-width: 1; stroke-dasharray: none; stroke-linecap: butt; stroke-dashoffset: 0; stroke-linejoin: miter; stroke-miterlimit: 4; is-custom-font: none; font-file-url: none; fill: rgb(8,30,122); fill-rule: nonzero; opacity: 1;" transform=" translate(-184.249, -151.5511)" d="M 179.26 163.018 C 178.343 162.953 177.46 162.643 176.703 162.121 C 174.978 160.923 174.137 158.697 174.375 155.848 C 174.851 150.123 179.568 143.468 184.875 141.013 C 187.582 139.767 190.034 139.762 191.794 140.991 C 193.554 142.221 194.359 144.425 194.122 147.264 C 193.646 152.989 188.929 159.653 183.622 162.099 C 182.272 162.775 180.769 163.091 179.26 163.018 Z M 189.186 141.05 C 187.845 140.992 186.512 141.28 185.315 141.886 C 180.275 144.211 175.807 150.516 175.355 155.939 C 175.148 158.43 175.824 160.357 177.251 161.359 C 178.678 162.361 180.846 162.352 183.227 161.249 C 188.267 158.924 192.736 152.619 193.187 147.195 C 193.395 144.705 192.718 142.787 191.291 141.785 C 190.669 141.353 189.942 141.096 189.186 141.04 L 189.186 141.05 Z" stroke-linecap="round"/>
</g>
</g>
</g>
</svg>