<svg width="314" height="314" viewBox="0 0 314 314" fill="none" xmlns="http://www.w3.org/2000/svg">
<rect width="314" height="314" fill="#F5F5F5"/>
<path d="M300 22H14C6.26801 22 0 28.2915 0 36.0524V299.948C0 307.709 6.26801 314 14 314H300C307.732 314 314 307.709 314 299.948V36.0524C314 28.2915 307.732 22 300 22Z" fill="#797EF6"/>
<g clip-path="url(#clip0_0_1)">
<path opacity="0.08" d="M149.348 246.338L67.9508 199.157C67.7602 199.044 67.6024 198.883 67.4928 198.69C67.3831 198.498 67.3255 198.28 67.3255 198.058C67.3255 197.836 67.3831 197.618 67.4928 197.425C67.6024 197.233 67.7602 197.072 67.9508 196.958L192.491 124.987L195.2 123.378C196.023 122.897 196.96 122.643 197.913 122.643C198.867 122.643 199.804 122.897 200.627 123.378L281.475 170.049C284.953 172.048 285.333 175.107 282.314 176.846L161.123 246.818C158.104 248.568 152.827 248.348 149.348 246.338Z" fill="black"/>
<path d="M34.3043 72.5287L158.524 1.16748C159.186 0.784575 159.925 0.554829 160.688 0.495121C161.45 0.435413 162.216 0.547262 162.929 0.822448C163.643 1.09763 164.285 1.52916 164.81 2.08533C165.335 2.64149 165.728 3.30815 165.961 4.03632L198.618 105.605C199.183 107.349 199.198 109.224 198.662 110.976C198.125 112.728 197.063 114.273 195.619 115.401L196.249 115.142C197.046 114.673 197.954 114.426 198.878 114.426C199.802 114.426 200.71 114.673 201.507 115.142L279.356 160.673C281.105 161.673 282.035 162.952 282.135 164.182V170.119C282.098 170.739 281.892 171.337 281.54 171.848C281.187 172.359 280.702 172.764 280.135 173.018L162.923 240.691C160.004 242.37 154.926 242.16 151.537 240.211L74.5681 195.599C73.8417 195.18 73.2385 194.577 72.8191 193.85C72.3997 193.124 72.179 192.3 72.1791 191.461V185.043C70.8681 185.394 69.531 185.638 68.1807 185.773C65.6517 185.663 63.2727 186.023 62.443 183.384L30.4559 82.2148C29.8956 80.4035 29.9719 78.4551 30.6719 76.6931C31.372 74.9311 32.6538 73.4616 34.3043 72.5287Z" fill="#E3FFFF"/>
<path d="M44.4511 74.748L157.286 9.49427C157.638 9.28351 158.034 9.15512 158.443 9.11867C158.853 9.08222 159.265 9.13866 159.649 9.28377C160.034 9.42888 160.38 9.65891 160.663 9.95672C160.946 10.2545 161.159 10.6124 161.284 11.0037L191.932 104.656C192.203 105.492 192.18 106.396 191.867 107.218C191.555 108.039 190.971 108.73 190.212 109.174L76.4982 175.268C76.2237 175.428 75.9167 175.524 75.5999 175.55C75.283 175.575 74.9645 175.529 74.6679 175.415C74.3713 175.301 74.1042 175.121 73.8863 174.89C73.6685 174.659 73.5055 174.381 73.4094 174.078L42.8018 78.9463C42.557 78.1633 42.587 77.3202 42.887 76.5567C43.187 75.7931 43.7388 75.155 44.4511 74.748Z" fill="white"/>
<path d="M169.62 130.445L172.788 132.344C173.918 132.994 174.038 133.974 173.058 134.544L117.77 166.461C117.167 166.733 116.508 166.86 115.847 166.832C115.186 166.804 114.54 166.622 113.962 166.301L110.803 164.412L169.62 130.445Z" fill="#67DAFF"/>
<path d="M72.8683 188.592L151.777 234.333C155.155 236.333 160.263 236.493 163.192 234.803L280.215 167.26C280.816 167.004 281.328 166.574 281.684 166.026C282.04 165.478 282.225 164.835 282.214 164.182V170.119C282.177 170.739 281.972 171.337 281.619 171.848C281.267 172.359 280.781 172.764 280.215 173.018L163.002 240.691C160.083 242.37 155.005 242.16 151.617 240.211L74.6476 195.599C73.9212 195.18 73.318 194.576 72.8986 193.85C72.4792 193.123 72.2585 192.299 72.2586 191.461V187.632C72.2738 187.83 72.3374 188.021 72.4437 188.188C72.55 188.355 72.6958 188.494 72.8683 188.592Z" fill="#67DAFF"/>
<path d="M198.969 205.705L231.876 186.713C232.875 186.153 232.725 185.163 231.596 184.513L213.203 173.908C212.625 173.586 211.979 173.404 211.318 173.377C210.657 173.349 209.998 173.476 209.395 173.748L176.498 192.74C175.498 193.31 175.638 194.29 176.768 194.939L195.161 205.565C195.74 205.886 196.386 206.065 197.048 206.09C197.71 206.114 198.368 205.982 198.969 205.705Z" fill="white"/>
<path d="M135.673 209.603L238.632 150.167C239.631 149.608 239.481 148.628 238.352 147.978L201.956 126.987C201.378 126.665 200.732 126.483 200.071 126.456C199.41 126.428 198.751 126.555 198.148 126.827L95.1894 186.263C94.1898 186.823 94.3297 187.812 95.4593 188.462L131.865 209.453C132.443 209.777 133.089 209.959 133.751 209.985C134.413 210.012 135.071 209.881 135.673 209.603Z" fill="#67DAFF"/>
<path d="M152.517 157.185L199.538 130.046L203.327 132.235L156.316 159.384L152.517 157.185Z" fill="#27AAE1"/>
<path d="M206.705 142.95L214.292 138.562L218.091 140.751L210.494 145.139L206.705 142.95Z" fill="#27AAE1"/>
<path d="M204.806 148.418L118.781 198.088L114.993 195.899L201.008 146.229L204.806 148.418Z" fill="#27AAE1"/>
<path d="M135.494 192.58L221.669 142.82L225.468 145.009L139.282 194.769L135.494 192.58Z" fill="#27AAE1"/>
<path d="M133.435 198.148L126.168 202.346L122.369 200.157L129.636 195.959L133.435 198.148Z" fill="#27AAE1"/>
<path d="M229.046 147.089L232.844 149.278L225.887 153.296L222.098 151.097L229.046 147.089Z" fill="#27AAE1"/>
<path d="M222.709 155.135L215.752 159.144L211.953 156.955L218.91 152.936L222.709 155.135Z" fill="#27AAE1"/>
<path d="M211.563 161.563L156.405 193.41L152.607 191.221L207.775 159.374L211.563 161.563Z" fill="#27AAE1"/>
<path d="M126.377 172.278L147.249 160.233L151.037 162.422L130.166 174.478L126.377 172.278Z" fill="#27AAE1"/>
<path d="M121.1 175.327L124.899 177.516L104.027 189.571L100.229 187.372L121.1 175.327Z" fill="#27AAE1"/>
<path d="M151.468 196.259L133.545 206.605L129.747 204.416L147.669 194.07L151.468 196.259Z" fill="#27AAE1"/>
<path d="M145.339 174.238L111.403 193.83L107.614 191.641L141.541 172.048L145.339 174.238Z" fill="#27AAE1"/>
<path d="M146.838 168.99L206.804 134.364L210.603 136.553L150.637 171.179L146.838 168.99Z" fill="#27AAE1"/>
<path d="M34.3055 71.9488L38.5138 69.5398C35.1552 71.479 34.7953 75.2375 35.9648 78.936L68.2318 181.115C69.1514 184.004 72.1602 186.223 74.8792 185.503C72.7787 186.389 70.5528 186.942 68.2818 187.142C66.9785 187.134 65.7135 186.701 64.6782 185.909C63.643 185.117 62.8938 184.01 62.5441 182.754L30.557 81.5849C30.0007 79.7915 30.0685 77.8625 30.7492 76.1126C31.43 74.3626 32.6835 72.8949 34.3055 71.9488Z" fill="#67DAFF"/>
<path d="M157.564 242.31C159.37 242.362 161.159 241.953 162.762 241.121L279.975 173.448C280.613 173.146 281.157 172.675 281.548 172.087C281.939 171.499 282.162 170.815 282.194 170.11L282.354 164.402H281.354L281.174 170.13C281.144 170.661 280.968 171.174 280.664 171.611C280.361 172.049 279.942 172.394 279.455 172.609L162.242 240.281C159.463 241.891 154.575 241.671 151.357 239.811L74.3877 195.189C73.7383 194.815 73.1989 194.275 72.8234 193.626C72.448 192.977 72.2498 192.241 72.2486 191.491V187.203H71.249V191.491C71.2505 192.417 71.495 193.326 71.9581 194.128C72.4212 194.929 73.0867 195.595 73.8879 196.059L150.857 240.681C152.919 241.783 155.227 242.344 157.564 242.31Z" fill="#081E7A"/>
<path d="M158.234 236.433C160.044 236.486 161.838 236.073 163.442 235.233L280.155 167.69C280.783 167.39 281.318 166.926 281.705 166.347C282.092 165.769 282.316 165.097 282.354 164.402C282.354 162.872 281.244 161.353 279.355 160.243L201.756 114.672C200.884 114.158 199.89 113.888 198.878 113.888C197.865 113.888 196.871 114.158 195.999 114.672L193.39 116.271L72.6584 186.033C72.3947 186.184 72.1756 186.403 72.0233 186.666C71.8709 186.929 71.7907 187.228 71.7907 187.532C71.7907 187.836 71.8709 188.135 72.0233 188.399C72.1756 188.662 72.3947 188.88 72.6584 189.032L151.567 234.773C153.613 235.882 155.907 236.453 158.234 236.433ZM198.888 114.932C199.712 114.932 200.522 115.149 201.237 115.561L278.835 161.103C280.455 162.043 281.374 163.242 281.374 164.402C281.33 164.923 281.147 165.423 280.845 165.85C280.543 166.277 280.132 166.615 279.655 166.831L162.942 234.373C160.163 235.973 155.265 235.763 152.026 233.894L73.1183 188.162C73.0086 188.098 72.9177 188.006 72.8546 187.895C72.7914 187.785 72.7583 187.66 72.7584 187.532C72.7573 187.405 72.79 187.279 72.8532 187.169C72.9164 187.058 73.0079 186.966 73.1183 186.903L193.86 117.131L196.489 115.571C197.216 115.146 198.045 114.925 198.888 114.932Z" fill="#081E7A"/>
<path d="M197.309 206.595C197.973 206.611 198.631 206.456 199.218 206.145L232.125 187.153C232.386 187.026 232.608 186.831 232.766 186.588C232.925 186.345 233.014 186.063 233.025 185.773C232.998 185.413 232.875 185.066 232.667 184.771C232.459 184.475 232.175 184.241 231.845 184.094L213.453 173.478C212.8 173.108 212.068 172.9 211.318 172.872C210.568 172.844 209.823 172.997 209.144 173.318L176.248 192.311C175.984 192.438 175.76 192.634 175.6 192.879C175.439 193.124 175.349 193.408 175.338 193.7C175.366 194.059 175.491 194.403 175.698 194.697C175.906 194.991 176.189 195.223 176.517 195.369L194.91 205.995C195.647 206.393 196.472 206.599 197.309 206.595ZM198.718 205.275C198.192 205.505 197.619 205.61 197.045 205.582C196.472 205.554 195.912 205.394 195.41 205.115L177.017 194.5C176.597 194.26 176.337 193.94 176.337 193.69C176.337 193.44 176.587 193.26 176.747 193.17L209.644 174.178C210.171 173.951 210.744 173.847 211.317 173.875C211.89 173.902 212.45 174.061 212.953 174.338L231.375 184.953C231.795 185.193 232.055 185.503 232.055 185.763C232.055 186.023 231.805 186.193 231.655 186.283L198.748 205.275H198.718Z" fill="#081E7A"/>
<path d="M134.014 210.483C134.679 210.504 135.338 210.349 135.923 210.033L238.882 150.607C239.143 150.478 239.364 150.281 239.523 150.036C239.681 149.792 239.771 149.509 239.782 149.218C239.749 148.859 239.623 148.515 239.416 148.221C239.209 147.926 238.928 147.691 238.602 147.538L202.207 126.547C201.552 126.181 200.821 125.976 200.072 125.949C199.323 125.921 198.578 126.071 197.898 126.387L94.9399 185.823C94.6763 185.95 94.4523 186.147 94.2921 186.391C94.1318 186.636 94.0413 186.92 94.0303 187.213C94.0585 187.571 94.183 187.916 94.3906 188.209C94.5982 188.503 94.8812 188.735 95.2098 188.882L131.615 209.873C132.349 210.28 133.175 210.49 134.014 210.483ZM199.788 126.927C200.453 126.922 201.11 127.084 201.697 127.397L238.092 148.388C238.512 148.628 238.772 148.938 238.772 149.198C238.772 149.458 238.522 149.628 238.372 149.718L135.414 209.154C134.888 209.381 134.318 209.484 133.746 209.457C133.174 209.429 132.616 209.271 132.115 208.994L95.7096 188.002C95.2898 187.752 95.0299 187.442 95.0299 187.193C95.0299 186.943 95.2798 186.753 95.4397 186.663L198.388 127.237C198.821 127.017 199.303 126.91 199.788 126.927Z" fill="#081E7A"/>
<path d="M156.066 159.813L156.565 158.944L153.567 157.184L199.548 130.625L203.087 132.624L203.586 131.765L199.798 129.576C199.722 129.532 199.636 129.509 199.548 129.509C199.46 129.509 199.374 129.532 199.298 129.576L152.317 156.715C152.242 156.758 152.179 156.821 152.135 156.896C152.091 156.972 152.068 157.057 152.067 157.144C152.068 157.233 152.091 157.32 152.135 157.397C152.179 157.474 152.241 157.538 152.317 157.584L156.066 159.813Z" fill="#081E7A"/>
<path d="M210.494 145.639C210.582 145.642 210.67 145.618 210.744 145.569L218.381 141.191L217.881 140.321L210.534 144.56L207.705 142.92L214.542 138.922L214.042 138.062L206.455 142.44C206.378 142.484 206.315 142.547 206.27 142.624C206.225 142.7 206.202 142.787 206.202 142.875C206.202 142.964 206.225 143.051 206.27 143.127C206.315 143.203 206.378 143.267 206.455 143.31L210.244 145.499C210.311 145.571 210.398 145.62 210.494 145.639Z" fill="#081E7A"/>
<path d="M118.781 198.588C118.869 198.591 118.957 198.566 119.031 198.518L205.056 148.858C205.133 148.814 205.197 148.751 205.241 148.675C205.286 148.598 205.309 148.511 205.309 148.423C205.309 148.335 205.286 148.248 205.241 148.171C205.197 148.095 205.133 148.032 205.056 147.988L201.257 145.799C201.182 145.755 201.095 145.732 201.008 145.732C200.92 145.732 200.834 145.755 200.758 145.799L114.742 195.469C114.665 195.51 114.6 195.572 114.556 195.648C114.512 195.724 114.49 195.811 114.492 195.899C114.491 195.987 114.513 196.073 114.557 196.149C114.601 196.225 114.665 196.287 114.742 196.329L118.531 198.518C118.606 198.564 118.693 198.588 118.781 198.588ZM203.806 148.428L118.781 197.508L115.992 195.899L201.008 146.809L203.806 148.428Z" fill="#081E7A"/>
<path d="M139.543 195.199L225.718 145.449C225.795 145.406 225.859 145.343 225.903 145.266C225.948 145.19 225.971 145.103 225.971 145.015C225.971 144.926 225.948 144.839 225.903 144.763C225.859 144.686 225.795 144.623 225.718 144.58L221.92 142.391C221.844 142.347 221.757 142.324 221.67 142.324C221.582 142.324 221.496 142.347 221.42 142.391L135.244 192.151L135.744 193.01L221.71 143.4L224.509 145.02L139.083 194.34L139.543 195.199Z" fill="#081E7A"/>
<path d="M126.167 202.896C126.255 202.897 126.341 202.872 126.416 202.826L133.684 198.628C133.761 198.586 133.825 198.523 133.87 198.448C133.915 198.372 133.938 198.286 133.938 198.198C133.938 198.11 133.915 198.024 133.87 197.948C133.825 197.872 133.761 197.81 133.684 197.768L129.895 195.579C129.819 195.535 129.733 195.512 129.645 195.512C129.557 195.512 129.471 195.535 129.395 195.579L122.118 199.777C122.041 199.82 121.977 199.882 121.932 199.957C121.887 200.033 121.863 200.119 121.863 200.207C121.863 200.295 121.887 200.381 121.932 200.457C121.977 200.533 122.041 200.595 122.118 200.637L125.917 202.826C125.991 202.875 126.078 202.899 126.167 202.896ZM132.434 198.198L126.167 201.817L123.368 200.207L129.645 196.589L132.434 198.198Z" fill="#081E7A"/>
<path d="M225.887 153.796C225.974 153.793 226.06 153.769 226.137 153.726L233.134 149.728C233.211 149.686 233.275 149.623 233.319 149.548C233.363 149.472 233.385 149.385 233.384 149.298C233.385 149.209 233.362 149.121 233.318 149.044C233.274 148.967 233.211 148.902 233.134 148.858L229.345 146.669C229.269 146.625 229.183 146.602 229.095 146.602C229.008 146.602 228.921 146.625 228.845 146.669L221.848 150.667C221.771 150.711 221.707 150.774 221.663 150.85C221.618 150.927 221.595 151.014 221.595 151.102C221.595 151.191 221.618 151.277 221.663 151.354C221.707 151.43 221.771 151.493 221.848 151.537L225.637 153.726C225.714 153.768 225.799 153.792 225.887 153.796ZM231.884 149.278L225.887 152.716L223.098 151.097L229.095 147.658L231.884 149.278Z" fill="#081E7A"/>
<path d="M215.502 159.584L216.001 158.714L212.953 156.915L218.95 153.476L222.499 155.525L222.999 154.656L219.2 152.466C219.124 152.423 219.038 152.4 218.95 152.4C218.862 152.4 218.776 152.423 218.7 152.466L211.703 156.465C211.628 156.508 211.565 156.571 211.521 156.647C211.477 156.722 211.454 156.807 211.453 156.895C211.453 156.982 211.476 157.068 211.52 157.144C211.563 157.219 211.627 157.282 211.703 157.325L215.502 159.584Z" fill="#081E7A"/>
<path d="M156.406 193.9C156.494 193.901 156.581 193.877 156.656 193.83L211.813 161.993C211.891 161.95 211.955 161.888 212 161.813C212.045 161.737 212.068 161.651 212.068 161.563C212.068 161.475 212.045 161.388 212 161.313C211.955 161.237 211.891 161.175 211.813 161.133L208.025 158.914C207.949 158.87 207.863 158.847 207.775 158.847C207.687 158.847 207.601 158.87 207.525 158.914L152.357 190.751C152.282 190.797 152.219 190.861 152.175 190.938C152.132 191.015 152.108 191.102 152.107 191.191C152.108 191.278 152.131 191.364 152.175 191.439C152.219 191.514 152.282 191.577 152.357 191.621L156.156 193.81C156.228 193.864 156.315 193.896 156.406 193.9ZM210.564 161.563L156.406 192.83L153.607 191.221L207.775 159.913L210.564 161.563Z" fill="#081E7A"/>
<path d="M130.417 174.907L151.298 162.852C151.375 162.81 151.44 162.748 151.485 162.672C151.53 162.596 151.553 162.51 151.553 162.422C151.553 162.334 151.53 162.248 151.485 162.172C151.44 162.097 151.375 162.035 151.298 161.992L147.5 159.803C147.424 159.759 147.338 159.736 147.25 159.736C147.162 159.736 147.076 159.759 147 159.803L126.128 171.848L126.628 172.718L147.25 160.813L150.049 162.422L129.917 174.038L130.417 174.907Z" fill="#081E7A"/>
<path d="M104.026 190.071C104.114 190.067 104.199 190.043 104.276 190.001L125.148 177.906C125.225 177.864 125.289 177.802 125.334 177.726C125.379 177.651 125.403 177.564 125.403 177.476C125.403 177.388 125.379 177.302 125.334 177.226C125.289 177.151 125.225 177.089 125.148 177.046L121.349 174.857C121.273 174.813 121.187 174.79 121.099 174.79C121.011 174.79 120.925 174.813 120.849 174.857L99.9778 186.853C99.9009 186.896 99.8369 186.959 99.7924 187.036C99.7479 187.112 99.7244 187.199 99.7244 187.287C99.7244 187.376 99.7479 187.463 99.7924 187.539C99.8369 187.615 99.9009 187.679 99.9778 187.722L103.776 189.911C103.843 189.987 103.93 190.042 104.026 190.071ZM123.898 177.516L104.026 188.992L101.227 187.372L121.099 175.907L123.898 177.516Z" fill="#081E7A"/>
<path d="M133.546 207.105C133.633 207.104 133.718 207.083 133.796 207.045L151.719 196.699C151.794 196.653 151.857 196.588 151.901 196.511C151.944 196.434 151.968 196.347 151.969 196.259C151.968 196.172 151.945 196.086 151.901 196.011C151.857 195.935 151.794 195.873 151.719 195.829L147.92 193.64C147.844 193.596 147.758 193.573 147.67 193.573C147.583 193.573 147.496 193.596 147.42 193.64L129.498 203.986C129.422 204.029 129.359 204.092 129.315 204.167C129.272 204.243 129.248 204.328 129.248 204.416C129.247 204.503 129.27 204.589 129.314 204.665C129.358 204.74 129.421 204.803 129.498 204.845L133.296 207.045C133.373 207.086 133.459 207.106 133.546 207.105ZM150.469 196.259L133.546 206.035L130.747 204.416L147.67 194.65L150.469 196.259Z" fill="#081E7A"/>
<path d="M111.155 194.26L111.655 193.4L108.656 191.641L141.592 172.648L145.141 174.648L145.641 173.788L141.842 171.589C141.766 171.545 141.68 171.522 141.592 171.522C141.505 171.522 141.419 171.545 141.343 171.589L107.406 191.181C107.329 191.225 107.265 191.288 107.221 191.364C107.176 191.441 107.153 191.527 107.153 191.616C107.153 191.704 107.176 191.791 107.221 191.867C107.265 191.944 107.329 192.007 107.406 192.051L111.155 194.26Z" fill="#081E7A"/>
<path d="M150.638 171.679C150.726 171.679 150.812 171.655 150.888 171.609L210.863 136.993C210.939 136.947 211.002 136.882 211.045 136.805C211.089 136.728 211.113 136.641 211.113 136.553C211.113 136.466 211.089 136.38 211.046 136.305C211.002 136.229 210.939 136.167 210.863 136.123L207.065 133.934C206.989 133.89 206.903 133.867 206.815 133.867C206.727 133.867 206.641 133.89 206.565 133.934L146.589 168.56C146.512 168.601 146.447 168.663 146.403 168.739C146.359 168.815 146.337 168.902 146.339 168.99C146.338 169.077 146.36 169.164 146.404 169.24C146.448 169.315 146.512 169.378 146.589 169.42L150.408 171.609C150.476 171.653 150.556 171.678 150.638 171.679ZM209.614 136.553L150.638 170.599L147.839 168.99L206.805 134.924L209.614 136.553Z" fill="#081E7A"/>
<path d="M68.2607 188.272V187.272C67.0727 187.218 65.9298 186.801 64.9861 186.077C64.0425 185.353 63.3433 184.357 62.9829 183.224L30.9957 82.0645C30.4513 80.3674 30.5079 78.5346 31.156 76.8744C31.804 75.2141 33.0041 73.8276 34.5543 72.9482L42.4511 68.8398L41.9913 67.9602L34.0645 72.0785C32.3204 73.0754 30.9716 74.641 30.2437 76.5134C29.5159 78.3858 29.4532 80.4513 30.0661 82.3644L62.0532 183.534C62.4792 184.863 63.3027 186.031 64.4127 186.878C65.5226 187.725 66.8657 188.212 68.2607 188.272Z" fill="#081E7A"/>
<path d="M73.218 185.813C74.4087 185.809 75.5775 185.492 76.6066 184.893L76.0968 184.024C75.3983 184.443 74.6153 184.702 73.8045 184.781C72.9937 184.861 72.1754 184.759 71.4087 184.484C70.7674 184.241 70.1904 183.855 69.7224 183.354C69.2544 182.853 68.9079 182.251 68.7098 181.595L36.4528 79.3559C35.9148 77.669 35.9716 75.8487 36.6138 74.1987C37.2559 72.5487 38.4446 71.1688 39.9814 70.2895L158.774 1.59715C159.371 1.25231 160.039 1.04555 160.727 0.992007C161.415 0.938463 162.106 1.0395 162.75 1.2877C163.394 1.53591 163.975 1.92502 164.449 2.42652C164.923 2.92802 165.279 3.52923 165.491 4.18611L198.148 105.765C198.73 107.601 198.671 109.58 197.981 111.378C197.291 113.176 196.01 114.686 194.349 115.661L194.849 116.521C196.706 115.43 198.137 113.742 198.909 111.731C199.681 109.721 199.747 107.508 199.097 105.455L166.4 3.88623C166.143 3.09218 165.712 2.36543 165.139 1.75882C164.565 1.15222 163.864 0.681007 163.086 0.379445C162.308 0.0778837 161.472 -0.0464487 160.639 0.0154877C159.807 0.077424 158.999 0.324072 158.274 0.737501L39.4516 69.4298C37.7123 70.4161 36.3654 71.9709 35.6372 73.8331C34.9091 75.6952 34.8441 77.7513 35.4532 79.6557L67.7602 181.905C68.0013 182.704 68.4234 183.438 68.9937 184.048C69.5641 184.658 70.2673 185.129 71.0489 185.423C71.7416 185.686 72.4771 185.818 73.218 185.813Z" fill="#081E7A"/>
<path d="M75.4375 176.057C75.9015 176.056 76.3568 175.932 76.757 175.697L190.461 109.604C191.315 109.098 191.972 108.317 192.322 107.388C192.673 106.46 192.697 105.44 192.39 104.496L161.703 10.8436C161.553 10.3891 161.304 9.97368 160.973 9.62763C160.643 9.28158 160.239 9.01359 159.792 8.84315C159.345 8.67271 158.865 8.60413 158.388 8.64238C157.911 8.68064 157.449 8.82477 157.035 9.0643L86.5431 49.8179L87.0429 50.6875L157.534 9.97393C157.82 9.80688 158.139 9.70605 158.469 9.67885C158.798 9.65166 159.13 9.6988 159.439 9.8168C159.748 9.93481 160.026 10.1207 160.254 10.3607C160.481 10.6006 160.652 10.8887 160.753 11.2034L191.451 104.806C191.686 105.532 191.667 106.317 191.396 107.032C191.125 107.746 190.619 108.346 189.961 108.734L76.2472 174.838C76.0374 174.96 75.8025 175.034 75.5601 175.053C75.3177 175.072 75.0742 175.036 74.8478 174.947C74.6171 174.866 74.4077 174.734 74.2347 174.561C74.0617 174.388 73.9297 174.179 73.8482 173.948L43.2405 78.8462C43.0278 78.1683 43.0514 77.4383 43.3074 76.7756C43.5634 76.1128 44.0368 75.5565 44.6499 75.1977L72.4787 59.1041L71.9789 58.2445L44.1501 74.328C43.3378 74.8018 42.711 75.5381 42.373 76.4157C42.0351 77.2933 42.0061 78.2598 42.2909 79.1561L72.8986 174.258C73.0154 174.63 73.2143 174.972 73.4808 175.257C73.7472 175.543 74.0743 175.765 74.438 175.907C74.7595 176.016 75.0981 176.067 75.4375 176.057Z" fill="#081E7A"/>
</g>
<defs>
<clipPath id="clip0_0_1">
<rect width="256" height="248" fill="white" transform="translate(29)"/>
</clipPath>
</defs>
</svg>
