<svg width="1280" height="667" viewBox="0 0 1280 667" fill="none" xmlns="http://www.w3.org/2000/svg">
<path d="M1280 0H0V667H1280V0Z" fill="#F9F9F9"/>
<g clip-path="url(#clip0_2_34)">
<path opacity="0.08" fill-rule="evenodd" clip-rule="evenodd" d="M1150.61 379.941L1162.95 372.927C1171.67 367.929 1185.88 367.929 1194.7 372.927L1382.44 480.714C1391.26 485.729 1391.26 493.865 1382.44 498.897L1346.82 503.965C1339.62 504.996 1332.28 503.568 1325.99 499.914L1150.61 398.212C1141.86 393.109 1141.86 384.973 1150.61 379.941Z" fill="#EEEEEE"/>
<path opacity="0.08" fill-rule="evenodd" clip-rule="evenodd" d="M1175.57 505.946C1193.2 516.064 1204.65 529.092 1201.2 535.037C1197.74 540.981 1180.65 537.632 1163.02 527.532C1145.4 517.432 1133.94 504.386 1137.39 498.424C1140.85 492.462 1157.93 495.829 1175.57 505.946Z" fill="#EEEEEE"/>
<path d="M1132.84 298.263C1135.43 298.689 1137.99 299.274 1140.5 300.017V162.965C1140.94 149.358 1159.6 134.067 1161.08 132.279C1164.4 128.246 1170.27 127.649 1176.85 131.507L1358.17 235.506C1368.49 241.433 1376.86 255.794 1376.86 267.595V474.857C1376.86 480.608 1374.89 484.677 1371.57 486.693C1368.26 488.71 1346.19 491.235 1341.92 491.708C1338.83 492.848 1334.86 492.322 1330.58 489.849L1198.87 414.186C1194.05 431.721 1189.73 447.38 1189.36 448.081C1188 450.394 1186.01 452.282 1183.63 453.535C1175.18 458.374 1161.79 458.672 1152.76 454.411V468.439C1152.76 468.439 1160.17 491.936 1176.73 501.913C1194.37 512.592 1216.81 511.487 1241.43 498.722C1265.01 486.448 1285.74 483.887 1303.01 490.972C1326.15 500.44 1333.88 523.779 1334.2 524.761C1334.51 525.608 1334.65 526.509 1334.61 527.411C1334.56 528.313 1334.33 529.196 1333.94 530.008C1333.54 530.82 1332.98 531.543 1332.29 532.134C1331.61 532.725 1330.81 533.172 1329.94 533.447C1329.08 533.722 1328.17 533.82 1327.26 533.735C1326.36 533.65 1325.48 533.384 1324.68 532.952C1323.88 532.52 1323.18 531.933 1322.62 531.224C1322.06 530.515 1321.64 529.701 1321.41 528.829C1321.41 528.636 1315.32 510.453 1297.89 503.316C1284.45 497.81 1267.55 500.247 1247.64 510.576C1210.99 529.566 1185.05 522.552 1169.76 513.328C1150.87 501.948 1140.41 468.439 1140.41 468.439V447.24L1132.75 442.944L1132.84 298.263Z" fill="#FDFDFD"/>
<path d="M1348.64 479.591V282.412C1348.64 271.19 1340.67 257.512 1330.84 251.884L1158.28 152.847C1153.75 150.234 1148.07 149.621 1144.91 151.006C1148.67 146.114 1159.6 134.067 1161.08 132.279C1164.4 128.246 1170.27 127.649 1176.85 131.507L1358.17 235.506C1368.49 241.433 1376.86 255.794 1376.86 267.595V474.769C1376.86 480.503 1374.89 484.554 1371.7 486.553C1368.5 488.552 1346.4 491.077 1342.15 491.568C1346.12 490.112 1348.64 485.904 1348.64 479.591Z" fill="#FDFDFD"/>
<path d="M1250.2 242.275C1288.46 264.193 1319.34 317.376 1319.34 360.951C1319.34 404.525 1288.46 422.182 1250.2 400.264C1238.09 393.06 1227.3 383.863 1218.29 373.067L1181.07 338.699V281.588C1181.07 237.961 1212.01 220.356 1250.2 242.275Z" fill="#FDFDFD"/>
<path d="M1268.66 340.44C1264.82 334.033 1264.74 327.043 1268.48 324.829C1272.23 322.614 1278.37 326.013 1282.21 332.42C1286.05 338.827 1286.12 345.816 1282.38 348.031C1278.64 350.246 1272.5 346.847 1268.66 340.44Z" fill="#FDFDFD"/>
<path d="M1217.51 310.64C1213.67 304.233 1213.59 297.243 1217.33 295.029C1221.07 292.814 1227.22 296.213 1231.05 302.62C1234.89 309.027 1234.97 316.016 1231.23 318.231C1227.49 320.446 1221.34 317.047 1217.51 310.64Z" fill="#FDFDFD"/>
<path d="M1138.73 446.906V468.404C1138.73 481.52 1150.08 501.913 1168.97 513.293C1184.26 522.517 1210.19 529.531 1246.84 510.54C1266.76 500.212 1283.66 497.775 1297.1 503.246C1314.53 510.383 1320.54 528.566 1320.61 528.759C1321.04 530.109 1321.89 531.287 1323.04 532.123C1324.19 532.958 1325.57 533.408 1327 533.406C1328.06 533.409 1329.11 533.161 1330.06 532.681C1331.01 532.202 1331.83 531.506 1332.45 530.65C1333.08 529.794 1333.49 528.803 1333.66 527.758C1333.82 526.712 1333.73 525.643 1333.4 524.638C1333.08 523.657 1325.36 500.318 1302.21 490.849C1284.95 483.835 1264.22 486.395 1240.63 498.599C1215.94 511.365 1193.64 512.469 1175.93 501.791C1159.37 491.813 1152.21 474.787 1152.84 468.317V453.833L1138.73 446.906Z" fill="#FDFDFD"/>
<path d="M1094.04 350.517C1094.04 350.517 1110.97 426.443 1111.45 427.548C1112.74 430.197 1114.86 432.357 1117.5 433.703L1152.05 453.535C1160.99 458.672 1175.51 458.672 1184.47 453.535C1186.84 452.277 1188.82 450.397 1190.19 448.099C1190.86 446.836 1208.14 383.36 1208.14 383.36L1094.04 350.517Z" fill="#FDFDFD"/>
<path d="M1084.25 318.902L1214.78 345.713L1218.13 352.218V368.526C1218.13 376.486 1210.6 384.465 1195.57 388.621C1187.98 390.648 1180.07 391.155 1172.29 390.11C1164.5 389.065 1157.01 386.491 1150.24 382.536L1095.22 350.973C1087.58 346.589 1083.84 340.803 1084.02 335.052C1084.18 329.651 1084.25 318.902 1084.25 318.902Z" fill="#FDFDFD"/>
<path d="M1095.85 304.032C1100.72 301.269 1106.04 299.381 1111.57 298.456L1129.03 297.755C1136.25 298.319 1143.27 300.406 1149.62 303.875L1206.72 336.998C1220.53 345.011 1221.11 359.022 1207.54 367.438C1192.87 376.557 1168.21 376.732 1153.13 367.982L1096.05 334.911C1081.58 326.477 1081.46 312.554 1095.85 304.032Z" fill="#FDFDFD"/>
<path d="M1172.25 351.938V292.915C1172.2 290.84 1172.88 288.813 1174.17 287.178C1175.45 285.542 1177.27 284.397 1179.3 283.937C1180.59 283.676 1181.92 283.704 1183.2 284.019C1184.47 284.335 1185.66 284.929 1186.67 285.759C1187.69 286.589 1188.5 287.634 1189.06 288.818C1189.62 290.001 1189.9 291.294 1189.89 292.6V352.218C1189.66 353.972 1187.91 355.725 1184.37 356.69C1182.2 357.233 1179.92 357.233 1177.75 356.69C1174.22 355.795 1172.46 354.024 1172.28 352.218C1172.25 352.218 1172.25 351.938 1172.25 351.938Z" fill="#FDFDFD"/>
<path d="M1112.28 259.283C1112.27 257.977 1112.55 256.685 1113.1 255.502C1113.66 254.318 1114.48 253.273 1115.49 252.443C1116.5 251.613 1117.69 251.018 1118.97 250.703C1120.24 250.388 1121.57 250.36 1122.86 250.621C1124.89 251.084 1126.71 252.229 1127.99 253.865C1129.28 255.5 1129.96 257.525 1129.92 259.599V318.902C1129.92 320.813 1128.15 322.76 1124.52 323.724C1122.26 324.32 1119.89 324.32 1117.64 323.724C1113.97 322.76 1112.21 320.813 1112.35 318.902C1112.28 318.902 1112.28 259.283 1112.28 259.283Z" fill="#FDFDFD"/>
<path d="M1339.03 492.953C1341.97 492.602 1367.8 489.446 1371.27 487.307C1374.75 485.167 1376.86 480.608 1376.86 474.769V267.595C1376.86 255.549 1368.27 240.802 1357.73 234.752L1176.41 130.683C1169.59 126.773 1163.27 127.176 1159.51 131.717L1143.36 151.532L1144.73 152.619L1160.87 132.84C1164.05 128.982 1169.52 128.754 1175.53 132.208L1356.84 236.278C1366.9 241.977 1375.1 256.092 1375.1 267.595V474.769C1375.1 480.03 1373.34 483.905 1370.34 485.816C1367.96 487.289 1350.19 489.849 1338.83 491.217L1339.03 492.953Z" fill="#EEEEEE"/>
<path d="M1337.85 493.023C1339.63 493.044 1341.38 492.59 1342.93 491.708C1346.54 489.639 1348.55 485.325 1348.55 479.591V282.412C1348.55 270.927 1340.37 256.881 1330.31 251.112L1157.75 152.075C1152.7 149.182 1147.91 148.744 1144.26 150.83C1140.6 152.917 1138.65 157.213 1138.65 162.965V290.846H1140.41V162.965C1140.41 157.879 1142.09 154.109 1145.14 152.356C1148.19 150.602 1152.39 151.023 1156.87 153.601L1329.52 252.638C1339.08 258.126 1346.88 271.488 1346.88 282.447V479.591C1346.88 484.677 1345.11 488.447 1342.13 490.2C1339.15 491.953 1334.88 491.515 1330.4 488.955L1203.79 416.326L1202.91 417.834L1329.52 490.463C1332.03 492.017 1334.89 492.899 1337.85 493.023Z" fill="#EEEEEE"/>
<path d="M1323.58 462.197C1324.52 462.207 1325.45 461.965 1326.27 461.495C1327.29 460.804 1328.1 459.856 1328.62 458.749C1329.14 457.642 1329.35 456.417 1329.24 455.2V283.517C1329.07 280.392 1328.16 277.35 1326.59 274.637C1325.02 271.923 1322.84 269.614 1320.21 267.893L1169.89 181.657C1168.87 180.945 1167.68 180.514 1166.44 180.406C1165.2 180.298 1163.96 180.518 1162.83 181.043C1161.81 181.732 1161 182.68 1160.48 183.787C1159.96 184.895 1159.75 186.121 1159.87 187.338V301.314H1161.63V187.338C1161.53 186.432 1161.67 185.516 1162.04 184.68C1162.4 183.844 1162.98 183.116 1163.71 182.568C1164.57 182.196 1165.51 182.057 1166.44 182.165C1167.37 182.273 1168.25 182.624 1169 183.182L1319.25 269.419C1321.63 270.955 1323.61 273.024 1325.04 275.461C1326.47 277.897 1327.3 280.632 1327.47 283.446V455.2C1327.57 456.107 1327.43 457.023 1327.07 457.859C1326.7 458.695 1326.13 459.422 1325.39 459.97C1324.54 460.344 1323.6 460.486 1322.67 460.382C1321.74 460.277 1320.85 459.929 1320.1 459.374L1211.06 396.792L1210.17 398.3L1319.25 460.882C1320.55 461.693 1322.04 462.146 1323.58 462.197Z" fill="#EEEEEE"/>
<path d="M1180.68 281.588H1182.44C1182.44 260.897 1189.5 245.466 1202.15 238.189C1214.8 230.912 1232.01 232.56 1250.25 243.029L1251.13 241.521C1232.33 230.719 1214.62 229.001 1201.27 236.663C1187.91 244.326 1180.68 260.23 1180.68 281.588Z" fill="#EEEEEE"/>
<path d="M1281.68 410.592C1288.14 410.676 1294.51 409.054 1300.13 405.892C1313.41 398.265 1320.72 382.308 1320.72 360.951H1318.95C1318.95 381.659 1311.9 397.072 1299.25 404.367C1286.6 411.661 1269.39 409.978 1251.13 399.51C1239.09 392.347 1228.36 383.211 1219.38 372.488L1218.04 373.628C1227.12 384.495 1237.98 393.76 1250.16 401.035C1261.34 407.383 1272.03 410.592 1281.68 410.592Z" fill="#EEEEEE"/>
<path d="M1280.66 348.711C1281.71 348.72 1282.74 348.454 1283.66 347.94C1284.76 347.184 1285.65 346.149 1286.22 344.941C1286.79 343.733 1287.03 342.395 1286.9 341.066C1286.7 337.599 1285.67 334.229 1283.91 331.233C1282.14 328.237 1279.69 325.7 1276.74 323.829C1275.62 323.041 1274.31 322.564 1272.95 322.447C1271.58 322.33 1270.2 322.577 1268.96 323.163C1267.86 323.919 1266.98 324.955 1266.41 326.163C1265.84 327.372 1265.61 328.709 1265.74 330.037C1265.94 333.501 1266.96 336.87 1268.73 339.865C1270.49 342.861 1272.94 345.4 1275.88 347.273C1277.32 348.161 1278.97 348.657 1280.66 348.711ZM1271.96 324.162C1273.35 324.219 1274.7 324.636 1275.88 325.372C1278.57 327.086 1280.81 329.41 1282.42 332.154C1284.03 334.898 1284.96 337.982 1285.14 341.154C1285.24 342.159 1285.07 343.173 1284.66 344.095C1284.24 345.017 1283.6 345.816 1282.78 346.414C1281.8 346.839 1280.73 347.002 1279.67 346.885C1278.61 346.768 1277.6 346.376 1276.74 345.748C1274.06 344.033 1271.82 341.708 1270.21 338.964C1268.6 336.221 1267.67 333.137 1267.5 329.966C1267.4 328.963 1267.56 327.95 1267.97 327.028C1268.39 326.106 1269.03 325.306 1269.85 324.706C1270.49 324.332 1271.22 324.138 1271.96 324.145V324.162Z" fill="#EEEEEE"/>
<path d="M1229.51 318.902C1230.56 318.911 1231.59 318.645 1232.5 318.13C1233.61 317.375 1234.5 316.34 1235.07 315.132C1235.64 313.923 1235.87 312.586 1235.75 311.257C1235.55 307.79 1234.52 304.42 1232.75 301.424C1230.99 298.428 1228.53 295.89 1225.59 294.02C1224.47 293.232 1223.16 292.755 1221.79 292.638C1220.43 292.521 1219.05 292.768 1217.81 293.354C1216.71 294.11 1215.82 295.146 1215.26 296.354C1214.69 297.562 1214.46 298.9 1214.58 300.227C1214.79 303.692 1215.81 307.06 1217.57 310.056C1219.34 313.052 1221.79 315.591 1224.73 317.464C1226.16 318.352 1227.81 318.848 1229.51 318.902ZM1220.81 294.353C1222.2 294.409 1223.55 294.826 1224.73 295.563C1227.42 297.277 1229.66 299.601 1231.27 302.345C1232.88 305.088 1233.81 308.173 1233.99 311.344C1234.09 312.35 1233.92 313.363 1233.5 314.286C1233.09 315.208 1232.44 316.007 1231.62 316.605C1230.65 317.03 1229.58 317.192 1228.52 317.075C1227.46 316.958 1226.45 316.566 1225.59 315.939C1222.9 314.224 1220.66 311.899 1219.06 309.155C1217.45 306.411 1216.52 303.327 1216.35 300.157C1216.25 299.153 1216.41 298.141 1216.82 297.219C1217.23 296.296 1217.88 295.496 1218.69 294.897C1219.33 294.523 1220.07 294.329 1220.81 294.336V294.353Z" fill="#EEEEEE"/>
<path d="M1327.88 534.318C1328.67 534.318 1329.44 534.194 1330.19 533.949C1331.14 533.65 1332.03 533.168 1332.79 532.529C1333.55 531.89 1334.18 531.107 1334.64 530.226C1335.1 529.344 1335.38 528.382 1335.46 527.393C1335.55 526.404 1335.43 525.408 1335.13 524.463C1334.8 523.464 1326.96 499.757 1303.38 490.13C1285.86 482.941 1264.89 485.571 1241.06 497.915C1216.72 510.523 1194.65 511.645 1177.22 501.142C1161.19 491.48 1153.94 474.752 1154.54 468.492V453.92H1152.78V468.404C1152.11 475.155 1159.41 492.462 1176.29 502.632C1194.28 513.469 1216.86 512.382 1241.85 499.476C1265.21 487.377 1285.69 484.782 1302.69 491.743C1325.46 501.072 1333.07 524.025 1333.37 525.059C1333.6 525.784 1333.69 526.546 1333.62 527.304C1333.56 528.062 1333.35 528.8 1333 529.476C1332.65 530.151 1332.16 530.752 1331.58 531.243C1331 531.734 1330.32 532.105 1329.59 532.336C1329.02 532.523 1328.43 532.618 1327.83 532.617C1326.59 532.616 1325.39 532.225 1324.39 531.5C1323.39 530.775 1322.65 529.754 1322.27 528.584C1322.27 528.391 1316.1 509.822 1298.26 502.527C1284.58 496.916 1267.41 499.371 1247.27 509.804C1210.97 528.619 1185.35 521.71 1170.26 512.592C1151.66 501.387 1140.5 481.345 1140.45 468.457V446.906H1138.68V468.404C1138.68 481.783 1150.22 502.509 1169.34 513.995C1184.83 523.341 1211.07 530.443 1248.08 511.259C1267.75 501.072 1284.4 498.634 1297.59 504.035C1314.58 511.049 1320.52 528.829 1320.52 529.005C1321.01 530.563 1321.98 531.924 1323.31 532.882C1324.64 533.84 1326.24 534.344 1327.88 534.318Z" fill="#EEEEEE"/>
<path d="M1168.26 458.251C1174.06 458.36 1179.79 456.996 1184.91 454.289C1187.43 452.953 1189.52 450.95 1190.96 448.502C1191.65 447.222 1206.1 394.144 1208.99 383.623L1207.23 383.167C1202.48 400.562 1190.03 446.082 1189.31 447.748C1188.04 449.888 1186.21 451.641 1184.01 452.816C1175.32 457.796 1161.08 457.796 1152.48 452.816L1117.92 432.984C1115.45 431.724 1113.46 429.707 1112.24 427.232C1111.73 425.707 1100.67 376.381 1094.88 350.377L1093.12 350.745C1095.96 363.44 1110.09 426.794 1110.58 427.899C1111.94 430.727 1114.2 433.036 1117 434.474L1151.56 454.306C1156.7 457.016 1162.45 458.374 1168.26 458.251Z" fill="#EEEEEE"/>
<path d="M1181.32 391.531C1186.5 391.535 1191.66 390.845 1196.66 389.48C1211.2 385.447 1219.88 377.609 1219.88 368.438V352.13H1218.11V368.438C1218.11 376.574 1209.71 383.956 1196.19 387.726C1188.71 389.71 1180.92 390.201 1173.26 389.172C1165.6 388.143 1158.21 385.613 1151.54 381.729L1096.52 350.167C1089.47 346.098 1085.59 340.715 1085.76 335.052C1085.94 329.388 1085.76 317.148 1085.76 317.026H1084C1084 317.148 1084.09 329.563 1084 334.981C1083.81 341.329 1087.95 347.256 1095.64 351.675L1150.66 383.237C1159.97 388.613 1170.54 391.473 1181.32 391.531Z" fill="#EEEEEE"/>
<path d="M1128.57 354.761L1129.47 353.253L1096.49 334.122C1089.75 330.212 1086.03 325.004 1086.01 319.463C1085.99 313.922 1089.64 308.732 1096.29 304.786C1101.08 302.083 1106.3 300.231 1111.73 299.315L1111.41 297.562C1105.78 298.505 1100.36 300.428 1095.39 303.243C1088.18 307.522 1084.21 313.273 1084.25 319.428C1084.28 325.583 1088.3 331.369 1095.61 335.595L1128.57 354.761Z" fill="#EEEEEE"/>
<path d="M1179.87 375.329C1190.12 375.329 1200.35 372.944 1208.09 368.175C1214.79 364.019 1218.45 358.373 1218.36 352.271C1218.27 346.169 1214.21 340.294 1207.24 336.244L1191.37 326.986L1190.47 328.494L1206.35 337.752C1212.77 341.487 1216.51 346.782 1216.59 352.306C1216.68 357.829 1213.31 362.827 1207.16 366.702C1192.9 375.469 1168.35 375.785 1153.64 367.228L1145.44 362.476L1144.56 363.984L1152.63 368.754C1160.99 373.241 1170.37 375.506 1179.87 375.329Z" fill="#EEEEEE"/>
<path d="M1171.51 317.587L1172.41 316.079L1150.06 303.121C1143.6 299.576 1136.46 297.453 1129.1 296.896L1128.94 298.649C1136.02 299.199 1142.89 301.238 1149.11 304.629L1171.51 317.587Z" fill="#EEEEEE"/>
<path d="M1180.17 357.97C1181.36 357.974 1182.54 357.827 1183.7 357.531C1187.33 356.619 1189.59 354.708 1189.87 352.271V292.652C1189.88 291.215 1189.56 289.795 1188.95 288.494C1188.34 287.193 1187.44 286.044 1186.32 285.132C1185.2 284.22 1183.9 283.567 1182.49 283.221C1181.09 282.875 1179.63 282.844 1178.21 283.131C1175.98 283.629 1173.98 284.881 1172.57 286.674C1171.16 288.467 1170.42 290.691 1170.47 292.968V351.99C1170.45 352.147 1170.45 352.307 1170.47 352.464C1170.77 354.813 1172.97 356.672 1176.59 357.584C1177.76 357.866 1178.96 357.996 1180.17 357.97ZM1180.17 284.639C1182.01 284.622 1183.79 285.242 1185.21 286.392C1186.13 287.141 1186.87 288.083 1187.38 289.151C1187.88 290.218 1188.14 291.384 1188.14 292.565V352.183C1187.95 353.691 1186.13 355.076 1183.29 355.795C1181.26 356.304 1179.13 356.304 1177.1 355.795C1174.24 355.076 1172.44 353.691 1172.3 352.095C1172.31 352.031 1172.31 351.966 1172.3 351.903V292.915C1172.24 291.849 1172.41 290.782 1172.78 289.78C1173.15 288.777 1173.72 287.861 1174.46 287.086C1175.2 286.312 1176.09 285.695 1177.08 285.274C1178.07 284.854 1179.13 284.637 1180.2 284.639H1180.17Z" fill="#EEEEEE"/>
<path d="M1120.2 325.057C1121.43 325.057 1122.67 324.898 1123.86 324.583C1127.73 323.566 1129.99 321.427 1129.92 318.867V259.599C1129.96 257.321 1129.22 255.097 1127.8 253.304C1126.39 251.511 1124.39 250.259 1122.15 249.762C1120.74 249.475 1119.28 249.505 1117.87 249.852C1116.47 250.198 1115.17 250.851 1114.05 251.764C1112.93 252.676 1112.04 253.825 1111.43 255.126C1110.81 256.427 1110.5 257.847 1110.51 259.283V309.573C1110.51 315.22 1110.51 317.745 1110.67 318.867H1110.53C1110.42 321.409 1112.68 323.549 1116.54 324.583C1117.74 324.899 1118.96 325.058 1120.2 325.057ZM1120.2 251.41C1120.73 251.411 1121.26 251.464 1121.78 251.568C1123.62 251.988 1125.25 253.026 1126.41 254.505C1127.56 255.985 1128.16 257.815 1128.12 259.687V318.99C1128.12 320.743 1126.35 322.181 1123.39 322.97C1121.28 323.531 1119.06 323.531 1116.95 322.97C1113.99 322.181 1112.19 320.673 1112.26 319.007C1112.26 317.78 1112.26 259.95 1112.26 259.389C1112.25 258.208 1112.51 257.04 1113.02 255.972C1113.52 254.904 1114.27 253.963 1115.19 253.216C1116.59 252.011 1118.38 251.34 1120.23 251.323L1120.2 251.41Z" fill="#EEEEEE"/>
</g>
<defs>
<clipPath id="clip0_2_34">
<rect width="196" height="410" fill="white" transform="translate(1084 128)"/>
</clipPath>
</defs>
</svg>
