<svg width="196" height="410" viewBox="0 0 196 410" fill="none" xmlns="http://www.w3.org/2000/svg">
<g clip-path="url(#clip0_662_4140)">
<path opacity="0.08" fill-rule="evenodd" clip-rule="evenodd" d="M66.6056 251.941L78.9531 244.927C87.6669 239.929 101.884 239.929 110.704 244.927L298.438 352.714C307.258 357.729 307.258 365.865 298.438 370.897L262.824 375.965C255.619 376.996 248.276 375.568 241.993 371.914L66.6056 270.212C57.8566 265.109 57.8566 256.973 66.6056 251.941Z" fill="#EEEEEE"/>
<path opacity="0.08" fill-rule="evenodd" clip-rule="evenodd" d="M91.565 377.946C109.204 388.064 120.652 401.092 117.195 407.037C113.738 412.981 96.6451 409.632 79.0235 399.532C61.4019 389.432 49.9364 376.386 53.3937 370.424C56.851 364.462 73.9258 367.829 91.565 377.946Z" fill="#EEEEEE"/>
<path d="M48.8431 170.263C51.4292 170.689 53.986 171.274 56.4986 172.017V34.9645C56.9395 21.3575 75.6018 6.06709 77.0835 4.27854C80.3997 0.245521 86.2736 -0.350664 92.853 3.507L274.167 107.506C284.486 113.433 292.864 127.794 292.864 139.595V346.857C292.864 352.608 290.889 356.677 287.572 358.693C284.256 360.71 262.19 363.235 257.921 363.708C254.834 364.848 250.865 364.322 246.579 361.849L114.867 286.186C110.051 303.721 105.73 319.38 105.359 320.081C103.996 322.394 102.01 324.282 99.6265 325.535C91.1773 330.374 77.7891 330.672 68.7578 326.411V340.439C68.7578 340.439 76.1663 363.936 92.7295 373.913C110.369 384.592 132.806 383.487 157.43 370.722C181.014 358.448 201.74 355.887 219.009 362.972C242.151 372.44 249.877 395.779 250.195 396.761C250.511 397.608 250.651 398.509 250.606 399.411C250.562 400.313 250.334 401.196 249.936 402.008C249.539 402.82 248.98 403.543 248.293 404.134C247.607 404.725 246.807 405.172 245.942 405.447C245.077 405.722 244.165 405.82 243.261 405.735C242.356 405.65 241.479 405.384 240.681 404.952C239.883 404.52 239.182 403.933 238.619 403.224C238.056 402.515 237.644 401.701 237.407 400.829C237.407 400.636 231.321 382.453 213.893 375.316C200.452 369.81 183.554 372.247 163.639 382.576C126.985 401.566 101.055 394.552 85.762 385.328C66.8704 373.948 56.4104 340.439 56.4104 340.439V319.24L48.7549 314.944L48.8431 170.263Z" fill="#FDFDFD"/>
<path d="M264.641 351.591V154.412C264.641 143.19 256.669 129.512 246.844 123.884L74.2789 24.8469C69.7456 22.2342 64.0658 21.6205 60.9084 23.0058C64.6655 18.1135 75.6018 6.06709 77.0835 4.27854C80.3997 0.245521 86.2736 -0.350664 92.853 3.507L274.167 107.506C284.486 113.433 292.864 127.794 292.864 139.595V346.769C292.864 352.503 290.889 356.554 287.696 358.553C284.503 360.552 262.401 363.077 258.15 363.568C262.119 362.112 264.641 357.904 264.641 351.591Z" fill="#FDFDFD"/>
<path d="M166.197 114.275C204.457 136.193 235.343 189.376 235.343 232.951C235.343 276.525 204.457 294.182 166.197 272.264C154.088 265.06 143.298 255.863 134.288 245.067L97.0689 210.699V153.588C97.0689 109.961 128.008 92.3561 166.197 114.275Z" fill="#FDFDFD"/>
<path d="M184.659 212.44C180.822 206.033 180.744 199.043 184.485 196.829C188.227 194.614 194.371 198.013 198.209 204.42C202.046 210.827 202.124 217.816 198.382 220.031C194.641 222.246 188.497 218.847 184.659 212.44Z" fill="#FDFDFD"/>
<path d="M133.506 182.64C129.668 176.233 129.59 169.243 133.332 167.029C137.074 164.814 143.218 168.213 147.055 174.62C150.893 181.027 150.971 188.016 147.229 190.231C143.488 192.446 137.343 189.047 133.506 182.64Z" fill="#FDFDFD"/>
<path d="M54.7336 318.906V340.404C54.7336 353.52 66.0756 373.913 84.9672 385.293C100.26 394.517 126.19 401.531 162.844 382.54C182.759 372.212 199.658 369.775 213.099 375.246C230.526 382.383 236.541 400.566 236.612 400.759C237.04 402.109 237.89 403.287 239.038 404.123C240.187 404.958 241.574 405.408 242.997 405.406C244.061 405.409 245.111 405.161 246.06 404.681C247.008 404.202 247.829 403.506 248.454 402.65C249.079 401.794 249.491 400.803 249.656 399.758C249.82 398.712 249.733 397.643 249.4 396.638C249.083 395.657 241.357 372.318 218.214 362.849C200.945 355.835 180.219 358.395 156.635 370.599C131.941 383.365 109.645 384.469 91.9347 373.791C75.3715 363.813 68.21 346.787 68.845 340.317V325.833L54.7336 318.906Z" fill="#FDFDFD"/>
<path d="M10.0363 222.517C10.0363 222.517 26.9699 298.443 27.4462 299.548C28.739 302.197 30.8623 304.357 33.4965 305.703L68.0517 325.535C76.9948 330.672 91.5119 330.672 100.473 325.535C102.843 324.277 104.82 322.397 106.188 320.099C106.858 318.836 124.145 255.36 124.145 255.36L10.0363 222.517Z" fill="#FDFDFD"/>
<path d="M0.247147 190.902L130.778 217.713L134.129 224.218V240.526C134.129 248.486 126.597 256.465 111.568 260.621C103.984 262.648 96.0696 263.155 88.2865 262.11C80.5033 261.065 73.0073 258.491 66.2355 254.536L11.2188 222.973C3.58096 218.589 -0.158539 212.803 0.0178528 207.052C0.176605 201.651 0.247147 190.902 0.247147 190.902Z" fill="#FDFDFD"/>
<path d="M11.8534 176.032C16.7213 173.269 22.0418 171.381 27.57 170.456L45.0328 169.755C52.2536 170.319 59.2708 172.406 65.6178 175.875L122.716 208.998C136.528 217.011 137.11 231.022 123.545 239.438C108.869 248.557 84.2095 248.732 69.128 239.982L12.0474 206.911C-2.41676 198.477 -2.54024 184.554 11.8534 176.032Z" fill="#FDFDFD"/>
<path d="M88.2483 223.938V164.915C88.2045 162.84 88.8826 160.813 90.1681 159.178C91.4537 157.542 93.2678 156.397 95.3039 155.937C96.5913 155.676 97.9212 155.704 99.1963 156.019C100.471 156.335 101.66 156.929 102.674 157.759C103.688 158.589 104.503 159.634 105.059 160.818C105.615 162.001 105.898 163.294 105.887 164.6V224.218C105.658 225.972 103.912 227.725 100.366 228.69C98.1954 229.233 95.9227 229.233 93.7517 228.69C90.2238 227.795 88.4599 226.024 88.2835 224.218C88.2482 224.218 88.2483 223.938 88.2483 223.938Z" fill="#FDFDFD"/>
<path d="M28.2761 131.283C28.2653 129.977 28.5482 128.685 29.1042 127.502C29.6602 126.318 30.4751 125.273 31.4895 124.443C32.5039 123.613 33.6921 123.018 34.9672 122.703C36.2424 122.388 37.5722 122.36 38.8596 122.621C40.8942 123.084 42.7064 124.229 43.9914 125.865C45.2764 127.5 45.9558 129.525 45.9153 131.599V190.902C45.9153 192.813 44.1514 194.76 40.5177 195.724C38.2639 196.32 35.8923 196.32 33.6384 195.724C29.9695 194.76 28.2055 192.813 28.3467 190.902C28.2761 190.902 28.2761 131.283 28.2761 131.283Z" fill="#FDFDFD"/>
<path d="M255.028 364.953C257.974 364.602 283.798 361.446 287.273 359.307C290.748 357.167 292.864 352.608 292.864 346.769V139.595C292.864 127.549 284.274 112.802 273.726 106.752L92.412 2.68282C85.5856 -1.22746 79.2708 -0.824154 75.5136 3.71737L59.3561 23.5318L60.7319 24.6189L76.8718 4.8396C80.0469 0.981937 85.5151 0.753984 91.53 4.20835L272.844 108.278C282.898 113.977 291.1 128.092 291.1 139.595V346.769C291.1 352.03 289.336 355.905 286.338 357.816C283.956 359.289 266.194 361.849 254.834 363.217L255.028 364.953Z" fill="#EEEEEE"/>
<path d="M253.846 365.023C255.627 365.044 257.381 364.59 258.926 363.708C262.542 361.639 264.553 357.325 264.553 351.591V154.412C264.553 142.927 256.368 128.881 246.314 123.112L73.7492 24.0754C68.7044 21.1821 63.9065 20.7437 60.2552 22.8304C56.6039 24.917 54.6459 29.2131 54.6459 34.9645V162.846H56.4099V34.9645C56.4099 29.8794 58.0856 26.1094 61.1371 24.3559C64.1887 22.6024 68.3869 23.0233 72.8672 25.6009L245.52 124.638C255.081 130.126 262.877 143.488 262.877 154.447V351.591C262.877 356.677 261.113 360.447 258.132 362.2C255.151 363.953 250.882 363.515 246.402 360.955L119.788 288.326L118.906 289.834L245.52 362.463C248.026 364.017 250.895 364.899 253.846 365.023Z" fill="#EEEEEE"/>
<path d="M239.576 334.197C240.523 334.207 241.455 333.965 242.275 333.495C243.288 332.804 244.097 331.856 244.618 330.749C245.139 329.642 245.353 328.417 245.238 327.2V155.517C245.067 152.392 244.161 149.35 242.592 146.637C241.024 143.923 238.837 141.614 236.207 139.893L85.8854 53.6566C84.8681 52.9452 83.6797 52.5137 82.4407 52.4059C81.2016 52.2981 79.9559 52.5179 78.8297 53.0429C77.8136 53.7318 77.0024 54.6796 76.481 55.7871C75.9597 56.8945 75.7474 58.1209 75.8664 59.3379V173.314H77.6303V59.3379C77.5319 58.4318 77.672 57.5158 78.0368 56.6797C78.4017 55.8436 78.9789 55.1161 79.7117 54.5684C80.5695 54.1964 81.5113 54.0572 82.4409 54.165C83.3706 54.2728 84.2548 54.6238 85.0035 55.1821L235.254 141.419C237.633 142.955 239.615 145.024 241.043 147.461C242.471 149.897 243.303 152.632 243.474 155.446V327.2C243.573 328.107 243.433 329.023 243.068 329.859C242.703 330.695 242.126 331.422 241.393 331.97C240.537 332.344 239.596 332.486 238.666 332.382C237.736 332.277 236.851 331.929 236.101 331.374L127.055 268.792L126.173 270.3L235.254 332.882C236.553 333.693 238.044 334.146 239.576 334.197Z" fill="#EEEEEE"/>
<path d="M96.6808 153.588H98.4447C98.4447 132.897 105.5 117.466 118.148 110.189C130.795 102.912 148.011 104.56 166.25 115.029L167.132 113.521C148.328 102.719 130.619 101.001 117.266 108.663C103.913 116.326 96.6808 132.23 96.6808 153.588Z" fill="#EEEEEE"/>
<path d="M197.682 282.592C204.142 282.676 210.509 281.054 216.133 277.892C229.415 270.265 236.718 254.308 236.718 232.951H234.954C234.954 253.659 227.898 269.072 215.251 276.367C202.604 283.661 185.388 281.978 167.131 271.51C155.09 264.347 144.355 255.211 135.38 244.488L134.04 245.628C143.12 256.495 153.98 265.76 166.161 273.035C177.344 279.383 188.034 282.592 197.682 282.592Z" fill="#EEEEEE"/>
<path d="M196.66 220.711C197.71 220.72 198.744 220.454 199.658 219.94C200.765 219.184 201.65 218.149 202.22 216.941C202.791 215.733 203.027 214.395 202.904 213.066C202.701 209.599 201.675 206.229 199.909 203.233C198.143 200.237 195.687 197.7 192.744 195.829C191.624 195.041 190.313 194.564 188.945 194.447C187.578 194.33 186.204 194.577 184.965 195.163C183.86 195.919 182.978 196.955 182.411 198.163C181.843 199.372 181.611 200.709 181.737 202.037C181.939 205.501 182.964 208.87 184.726 211.865C186.489 214.861 188.941 217.4 191.88 219.273C193.318 220.161 194.967 220.657 196.66 220.711ZM187.964 196.162C189.353 196.219 190.703 196.636 191.88 197.372C194.57 199.086 196.812 201.41 198.422 204.154C200.032 206.898 200.964 209.982 201.14 213.154C201.239 214.159 201.073 215.173 200.659 216.095C200.244 217.017 199.596 217.816 198.777 218.414C197.801 218.839 196.729 219.002 195.67 218.885C194.611 218.768 193.602 218.376 192.744 217.748C190.056 216.033 187.816 213.708 186.209 210.964C184.602 208.221 183.674 205.137 183.501 201.966C183.4 200.963 183.563 199.95 183.974 199.028C184.386 198.106 185.031 197.306 185.847 196.706C186.488 196.332 187.22 196.138 187.964 196.145V196.162Z" fill="#EEEEEE"/>
<path d="M145.506 190.902C146.557 190.911 147.591 190.645 148.505 190.13C149.612 189.375 150.496 188.34 151.067 187.132C151.637 185.923 151.873 184.586 151.751 183.257C151.548 179.79 150.521 176.42 148.755 173.424C146.989 170.428 144.534 167.89 141.59 166.02C140.47 165.232 139.159 164.755 137.792 164.638C136.425 164.521 135.051 164.768 133.812 165.354C132.706 166.11 131.825 167.146 131.257 168.354C130.69 169.562 130.457 170.9 130.584 172.227C130.786 175.692 131.81 179.06 133.573 182.056C135.336 185.052 137.787 187.591 140.726 189.464C142.165 190.352 143.814 190.848 145.506 190.902ZM136.81 166.353C138.199 166.409 139.55 166.826 140.726 167.563C143.416 169.277 145.659 171.601 147.269 174.345C148.879 177.088 149.81 180.173 149.987 183.344C150.086 184.35 149.92 185.363 149.505 186.286C149.091 187.208 148.442 188.007 147.623 188.605C146.647 189.03 145.576 189.192 144.517 189.075C143.458 188.958 142.449 188.566 141.59 187.939C138.903 186.224 136.663 183.899 135.056 181.155C133.449 178.411 132.521 175.327 132.348 172.157C132.247 171.153 132.41 170.141 132.821 169.219C133.232 168.296 133.878 167.496 134.694 166.897C135.335 166.523 136.067 166.329 136.81 166.336V166.353Z" fill="#EEEEEE"/>
<path d="M243.88 406.318C244.665 406.318 245.445 406.194 246.191 405.949C247.143 405.65 248.026 405.168 248.79 404.529C249.553 403.89 250.183 403.107 250.642 402.226C251.1 401.344 251.38 400.382 251.464 399.393C251.547 398.404 251.434 397.408 251.13 396.463C250.795 395.464 242.963 371.757 219.379 362.13C201.863 354.941 180.89 357.571 157.06 369.915C132.718 382.523 110.651 383.645 93.2234 373.142C77.1893 363.48 69.9396 346.752 70.5394 340.492V325.92H68.7754V340.404C68.1051 347.155 75.4078 364.462 92.2885 374.632C110.281 385.469 132.859 384.382 157.854 371.476C181.208 359.377 201.687 356.782 218.691 363.743C241.464 373.072 249.066 396.025 249.366 397.059C249.599 397.784 249.686 398.546 249.623 399.304C249.559 400.062 249.346 400.8 248.996 401.476C248.645 402.151 248.164 402.752 247.58 403.243C246.996 403.734 246.32 404.105 245.591 404.336C245.022 404.523 244.426 404.618 243.827 404.617C242.591 404.616 241.387 404.225 240.388 403.5C239.389 402.775 238.648 401.754 238.271 400.584C238.271 400.391 232.097 381.822 214.264 374.527C200.576 368.916 183.413 371.371 163.269 381.804C126.967 400.619 101.355 393.71 86.2559 384.592C67.6642 373.387 56.4985 353.345 56.4456 340.457V318.906H54.6817V340.404C54.6817 353.783 66.2177 374.509 85.3387 385.995C100.826 395.341 127.073 402.443 164.08 383.259C183.748 373.072 200.399 370.634 213.594 376.035C230.58 383.049 236.525 400.829 236.525 401.005C237.006 402.563 237.984 403.924 239.31 404.882C240.637 405.84 242.241 406.344 243.88 406.318Z" fill="#EEEEEE"/>
<path d="M84.2623 330.251C90.0615 330.36 95.7927 328.996 100.914 326.289C103.43 324.953 105.524 322.95 106.964 320.502C107.652 319.222 122.098 266.144 124.991 255.623L123.227 255.167C118.482 272.562 106.029 318.082 105.306 319.748C104.043 321.888 102.212 323.641 100.014 324.816C91.318 329.796 77.0832 329.796 68.4752 324.816L33.92 304.984C31.4538 303.724 29.4621 301.707 28.2401 299.232C27.7286 297.707 16.6688 248.381 10.8831 222.377L9.11917 222.745C11.9591 235.44 26.0881 298.794 26.582 299.899C27.9446 302.727 30.1991 305.036 33.0027 306.474L67.558 326.306C72.6964 329.016 78.4468 330.374 84.2623 330.251Z" fill="#EEEEEE"/>
<path d="M97.3157 263.531C102.5 263.535 107.662 262.845 112.662 261.48C127.197 257.447 135.875 249.609 135.875 240.438V224.13H134.111V240.438C134.111 248.574 125.715 255.956 112.186 259.726C104.715 261.71 96.9222 262.201 89.259 261.172C81.5959 260.143 74.2141 257.613 67.5407 253.729L12.5239 222.167C5.46823 218.098 1.58759 212.715 1.76398 207.052C1.94037 201.388 1.76398 189.148 1.76398 189.026H6.10352e-05C6.10352e-05 189.148 0.0882568 201.563 6.10352e-05 206.981C-0.19397 213.329 3.95125 219.256 11.642 223.675L66.6587 255.237C75.9748 260.613 86.5438 263.473 97.3157 263.531Z" fill="#EEEEEE"/>
<path d="M44.5741 226.761L45.4737 225.253L12.4883 206.122C5.75016 202.212 2.02829 197.004 2.01065 191.463C1.99301 185.922 5.64433 180.732 12.2943 176.786C17.079 174.083 22.3025 172.231 27.7286 171.315L27.4111 169.562C21.7779 170.505 16.3561 172.428 11.3947 175.243C4.18028 179.522 0.211445 185.273 0.246723 191.428C0.282001 197.583 4.30375 203.369 11.6064 207.595L44.5741 226.761Z" fill="#EEEEEE"/>
<path d="M95.8691 247.329C106.117 247.329 116.348 244.944 124.092 240.175C130.795 236.019 134.446 230.373 134.358 224.271C134.27 218.169 130.213 212.294 123.245 208.244L107.37 198.986L106.47 200.494L122.346 209.752C128.766 213.487 132.506 218.782 132.594 224.306C132.682 229.829 129.313 234.827 123.157 238.702C108.904 247.469 84.3507 247.785 69.6395 239.228L61.4373 234.476L60.5553 235.984L68.6341 240.754C76.9912 245.241 86.3726 247.506 95.8691 247.329Z" fill="#EEEEEE"/>
<path d="M87.5077 189.587L88.4073 188.079L66.0584 175.121C59.6031 171.576 52.4564 169.453 45.103 168.896L44.9443 170.649C52.0151 171.199 58.8875 173.238 65.1059 176.629L87.5077 189.587Z" fill="#EEEEEE"/>
<path d="M96.1694 229.97C97.3594 229.974 98.545 229.827 99.6973 229.531C103.331 228.619 105.589 226.708 105.871 224.271V164.652C105.879 163.215 105.565 161.795 104.951 160.494C104.337 159.193 103.438 158.044 102.321 157.132C101.204 156.22 99.8968 155.567 98.4938 155.221C97.0909 154.875 95.6279 154.844 94.2115 155.131C91.9762 155.629 89.9833 156.881 88.5716 158.674C87.1599 160.467 86.4165 162.691 86.4678 164.968V223.99C86.4463 224.147 86.4463 224.307 86.4678 224.464C86.7677 226.813 88.9726 228.672 92.5886 229.584C93.7603 229.866 94.964 229.996 96.1694 229.97ZM96.1694 156.639C98.0051 156.622 99.7892 157.242 101.214 158.392C102.132 159.141 102.871 160.083 103.377 161.151C103.884 162.218 104.145 163.384 104.142 164.565V224.183C103.948 225.691 102.131 227.076 99.2916 227.795C97.2595 228.304 95.1323 228.304 93.1002 227.795C90.2426 227.076 88.4434 225.691 88.3023 224.095C88.3122 224.031 88.3122 223.966 88.3023 223.903V164.915C88.2448 163.849 88.4066 162.782 88.7778 161.78C89.1491 160.777 89.7221 159.861 90.4617 159.086C91.2013 158.312 92.0921 157.695 93.0795 157.274C94.0669 156.854 95.1303 156.637 96.2047 156.639H96.1694Z" fill="#EEEEEE"/>
<path d="M36.1958 197.057C37.4342 197.057 38.6674 196.898 39.8647 196.583C43.7277 195.566 45.9855 193.427 45.915 190.867V131.599C45.9621 129.321 45.215 127.097 43.8003 125.304C42.3857 123.511 40.3907 122.259 38.1537 121.762C36.7381 121.475 35.2759 121.505 33.8738 121.852C32.4716 122.198 31.165 122.851 30.0493 123.764C28.9336 124.676 28.037 125.825 27.425 127.126C26.813 128.427 26.501 129.847 26.5118 131.283V181.573C26.5118 187.22 26.5118 189.745 26.6706 190.867H26.5295C26.4236 193.409 28.6814 195.549 32.5444 196.583C33.7355 196.899 34.9631 197.058 36.1958 197.057ZM36.1958 123.41C36.7289 123.411 37.2606 123.464 37.7833 123.568C39.6186 123.988 41.2516 125.026 42.4056 126.505C43.5596 127.985 44.1638 129.815 44.1158 131.687V190.99C44.1158 192.743 42.3518 194.181 39.3884 194.97C37.2794 195.531 35.0591 195.531 32.9501 194.97C29.9868 194.181 28.1875 192.673 28.2581 191.007C28.2581 189.78 28.2581 131.95 28.2581 131.389C28.2516 130.208 28.5113 129.04 29.0179 127.972C29.5246 126.904 30.2655 125.963 31.1862 125.216C32.5893 124.011 34.3769 123.34 36.231 123.323L36.1958 123.41Z" fill="#EEEEEE"/>
</g>
<defs>
<clipPath id="clip0_662_4140">
<rect width="305" height="410" fill="white" transform="matrix(-1 0 0 1 305 0)"/>
</clipPath>
</defs>
</svg>
